<?xml version="1.0" encoding="UTF-8"?>
<svg version="1.1" xmlns="http://www.w3.org/2000/svg" width="588" height="131">
<path d="M0 0 C1.134375 0.00902344 2.26875 0.01804687 3.4375 0.02734375 C4.283125 0.03894531 5.12875 0.05054688 6 0.0625 C6 4.46905633 5.31787083 5.69384159 3.09765625 9.375 C2.46327637 10.4362207 1.82889648 11.49744141 1.17529297 12.59082031 C0.47124105 13.74817611 -0.23302944 14.90539898 -0.9375 16.0625 C-1.66331072 17.26877697 -2.38839606 18.47549066 -3.11279297 19.68261719 C-5.01686351 22.85002837 -6.93198436 26.01060081 -8.85064697 29.16918945 C-9.96933058 31.01197877 -11.08552639 32.85624681 -12.20068359 34.70117188 C-17.11575562 42.83263662 -22.05443702 50.94955399 -27 59.0625 C-28.19549227 61.02593222 -29.39081334 62.98946869 -30.5859375 64.953125 C-31.15376953 65.88608398 -31.72160156 66.81904297 -32.30664062 67.78027344 C-33.14485352 69.15747559 -33.14485352 69.15747559 -34 70.5625 C-34.55107422 71.46774414 -35.10214844 72.37298828 -35.66992188 73.30566406 C-37.44678564 76.22450529 -39.22341175 79.14349107 -41 82.0625 C-41.35292114 82.64225586 -41.70584229 83.22201172 -42.06945801 83.81933594 C-44.37636842 87.60909897 -46.6822038 91.399513 -48.98681641 95.19067383 C-49.73583196 96.42248469 -50.48517216 97.65409822 -51.23486328 98.88549805 C-54.89841436 104.90348026 -58.55246726 110.91767481 -62 117.0625 C-64.63262969 116.70724258 -65.72520069 116.40083374 -67.42871094 114.3034668 C-67.85958008 113.54718994 -68.29044922 112.79091309 -68.734375 112.01171875 C-69.22260742 111.17286133 -69.71083984 110.33400391 -70.21386719 109.46972656 C-70.97425293 108.12346191 -70.97425293 108.12346191 -71.75 106.75 C-72.81019211 104.924439 -73.87269227 103.10021643 -74.9375 101.27734375 C-75.45570313 100.38644043 -75.97390625 99.49553711 -76.5078125 98.57763672 C-79.46126229 93.59948886 -82.70986919 88.82351282 -86 84.0625 C-89.19064913 87.85814806 -91.80577124 91.86076183 -94.3125 96.125 C-94.69913818 96.77605713 -95.08577637 97.42711426 -95.48413086 98.09790039 C-96.66101534 100.08324282 -97.83173024 102.07207776 -99 104.0625 C-99.36158203 104.67834961 -99.72316406 105.29419922 -100.09570312 105.92871094 C-102.07305298 109.30129363 -104.04070126 112.67940218 -106 116.0625 C-107.74316406 115.95141602 -107.74316406 115.95141602 -110 115.0625 C-111.54612838 113.00280668 -112.82832513 111.05501238 -114.109375 108.83984375 C-114.48104797 108.21976944 -114.85272095 107.59969513 -115.23565674 106.96083069 C-116.41893122 104.98065166 -117.58453494 102.99070267 -118.75 101 C-119.54963812 99.65491872 -120.35040637 98.31050861 -121.15234375 96.96679688 C-123.11475642 93.67300633 -125.06138519 90.37034847 -127 87.0625 C-129.89356555 90.62320566 -132.38873023 94.18792417 -134.75 98.125 C-138.64792284 104.56719321 -142.77628589 110.82802837 -147 117.0625 C-151.46512882 115.59069807 -152.88810807 112.23421716 -154.9375 108.3125 C-155.73325709 106.84634021 -156.53157757 105.38156971 -157.33203125 103.91796875 C-157.76080566 103.13083496 -158.18958008 102.34370117 -158.63134766 101.53271484 C-161.04321801 97.17964594 -163.5852913 92.90434575 -166.125 88.625 C-166.6722876 87.70074219 -167.2195752 86.77648437 -167.78344727 85.82421875 C-171.33091665 79.84438806 -174.91021233 73.8841401 -178.49804688 67.9284668 C-179.11744141 66.90019775 -179.73683594 65.87192871 -180.375 64.8125 C-180.99955078 63.77585205 -181.62410156 62.7392041 -182.26757812 61.67114258 C-187.45478284 53.03311667 -192.48492205 44.31000994 -197.48217773 35.56103516 C-202.15374586 27.42154748 -207.03856123 19.43447169 -212.14111328 11.55761719 C-212.65013184 10.75743164 -213.15915039 9.95724609 -213.68359375 9.1328125 C-214.13275146 8.43945801 -214.58190918 7.74610352 -215.04467773 7.03173828 C-216 5.0625 -216 5.0625 -216 1.0625 C-171.12 1.0625 -126.24 1.0625 -80 1.0625 C-80.96196682 5.87233408 -82.55175661 9.18643946 -85 13.3125 C-85.36867187 13.94929688 -85.73734375 14.58609375 -86.1171875 15.2421875 C-88.82573342 19.88823342 -88.82573342 19.88823342 -90 21.0625 C-92.86091818 21.15772418 -95.69763621 21.18803326 -98.55883789 21.17602539 C-99.45631241 21.17617142 -100.35378693 21.17631744 -101.27845764 21.1764679 C-104.25988134 21.17576842 -107.2412434 21.16797441 -110.22265625 21.16015625 C-112.28388942 21.15829219 -114.34512304 21.15686823 -116.40635681 21.15586853 C-121.8430401 21.15204237 -127.27969686 21.14221126 -132.71636963 21.13116455 C-138.25947714 21.12095253 -143.80258892 21.11637136 -149.34570312 21.11132812 C-160.23048043 21.10058908 -171.11523802 21.08351149 -182 21.0625 C-181.64186722 21.69606918 -181.28373444 22.32963837 -180.91474915 22.98240662 C-169.15507523 43.78654782 -169.15507523 43.78654782 -165.16796875 50.84765625 C-159.47175982 60.93452231 -153.76421499 71.0143065 -148 81.0625 C-144.38501039 76.7622043 -141.39089513 72.16293997 -138.375 67.4375 C-137.40375798 65.92440717 -136.43240813 64.41138356 -135.4609375 62.8984375 C-135.03603027 62.23376465 -134.61112305 61.5690918 -134.17333984 60.88427734 C-133.13148529 59.26664965 -132.06730145 57.66345218 -131 56.0625 C-130.61500109 54.40700469 -130.27206865 52.7402567 -130 51.0625 C-130.86625 51.2275 -131.7325 51.3925 -132.625 51.5625 C-133.57826172 51.66691406 -133.57826172 51.66691406 -134.55078125 51.7734375 C-137.14326275 52.04416306 -137.14326275 52.04416306 -140.23046875 52.7265625 C-144.37360808 53.25970366 -147.00550291 53.36754541 -151 52.0625 C-155.46506001 47.56801179 -159.03966121 41.08078119 -161 35.0625 C-160.505 34.0725 -160.505 34.0725 -160 33.0625 C-139.87 33.0625 -119.74 33.0625 -99 33.0625 C-99 38.88886186 -99.00298723 39.81411052 -101.95703125 44.25 C-102.57513672 45.19617187 -103.19324219 46.14234375 -103.83007812 47.1171875 C-104.48427734 48.08914062 -105.13847656 49.06109375 -105.8125 50.0625 C-107.6957867 52.91104196 -109.57208852 55.76269139 -111.4230957 58.63232422 C-112.65441576 60.52991825 -113.92855339 62.39974767 -115.21875 64.2578125 C-116.12769663 67.52093091 -115.83826397 68.03728814 -114.32421875 70.9296875 C-113.46954879 72.28125861 -112.58953747 73.61707068 -111.6875 74.9375 C-111.24470703 75.62585938 -110.80191406 76.31421875 -110.34570312 77.0234375 C-109.25185859 78.71713226 -108.1286711 80.39181171 -107 82.0625 C-104.04022023 78.54512754 -101.72356559 75.00566859 -99.53125 70.96875 C-99.2144931 70.38937683 -98.89773621 69.81000366 -98.57138062 69.21307373 C-97.89464719 67.97442 -97.22000639 66.73462103 -96.54730225 65.49377441 C-94.76317746 62.20376471 -92.96284476 58.9226367 -91.1640625 55.640625 C-90.8057132 54.98592224 -90.44736389 54.33121948 -90.07815552 53.65667725 C-87.0722536 48.17281974 -83.99488791 42.73234981 -80.875 37.3125 C-77.61181752 31.64299562 -74.37333205 25.96120501 -71.18359375 20.25 C-70.86090515 19.67231873 -70.53821655 19.09463745 -70.20574951 18.49945068 C-68.61931 15.65771441 -67.03568026 12.81444273 -65.45458984 9.96972656 C-64.60501709 8.44557129 -64.60501709 8.44557129 -63.73828125 6.890625 C-63.23337158 5.9821582 -62.72846191 5.07369141 -62.20825195 4.13769531 C-61 2.0625 -61 2.0625 -60 1.0625 C-58.29227642 0.97536169 -56.58101351 0.95549993 -54.87109375 0.96484375 C-53.31938477 0.96967773 -53.31938477 0.96967773 -51.73632812 0.97460938 C-50.64771484 0.98298828 -49.55910156 0.99136719 -48.4375 1 C-46.7987793 1.00676758 -46.7987793 1.00676758 -45.12695312 1.01367188 C-42.41791505 1.02550174 -39.70898401 1.04198457 -37 1.0625 C-36.67 1.7225 -36.34 2.3825 -36 3.0625 C-37.30419922 5.45410156 -37.30419922 5.45410156 -39.3046875 8.453125 C-40.02881836 9.54802246 -40.75294922 10.64291992 -41.49902344 11.77099609 C-42.29093782 12.95154959 -43.08293159 14.13204984 -43.875 15.3125 C-44.6730644 16.51456363 -45.47026434 17.71720162 -46.26660156 18.92041016 C-47.82341984 21.27159448 -49.38347315 23.6205719 -50.94628906 25.96777344 C-53.92782659 30.46063717 -56.83660825 34.99596886 -59.72265625 39.55078125 C-61.58700117 42.46551049 -63.53754107 45.31580363 -65.49609375 48.16796875 C-66.10549805 49.06918457 -66.71490234 49.97040039 -67.34277344 50.89892578 C-68.5512485 52.68476916 -69.77411309 54.46097858 -71.01269531 56.22607422 C-71.83205566 57.44641357 -71.83205566 57.44641357 -72.66796875 58.69140625 C-73.16578857 59.41400635 -73.6636084 60.13660645 -74.17651367 60.88110352 C-75.26613518 63.10839667 -75.26613518 63.10839667 -74.25366211 65.64550781 C-72.16281309 69.6765507 -69.80831154 73.53282518 -67.4609375 77.41796875 C-66 80.0625 -66 80.0625 -66 82.0625 C-62.44273991 80.63741447 -61.12910393 79.1336792 -59.30078125 75.80078125 C-58.81907471 74.93775391 -58.33736816 74.07472656 -57.84106445 73.18554688 C-57.33663818 72.25806641 -56.83221191 71.33058594 -56.3125 70.375 C-55.23041907 68.43289542 -54.14708103 66.49149074 -53.0625 64.55078125 C-52.27166016 63.12693115 -52.27166016 63.12693115 -51.46484375 61.67431641 C-49.64408349 58.42790086 -47.74474355 55.24390881 -45.8125 52.0625 C-42.818553 47.13171219 -39.88530161 42.16736878 -36.98046875 37.18359375 C-36.61556839 36.55820709 -36.25066803 35.93282043 -35.87471008 35.28848267 C-33.64879669 31.47314986 -33.64879669 31.47314986 -31.42935181 27.65405273 C-29.34154235 24.05461952 -27.22826865 20.47222046 -25.08837891 16.90350342 C-23.94868535 14.97570078 -22.84829836 13.02805169 -21.74609375 11.07861328 C-20.98834905 9.7924862 -20.22927473 8.50714138 -19.46875 7.22265625 C-19.13943481 6.61908798 -18.81011963 6.01551971 -18.4708252 5.3936615 C-17.02502002 3.01354822 -15.78453365 1.3050903 -13.06713867 0.46482849 C-8.75130749 -0.10773488 -4.34858775 -0.04529779 0 0 Z " fill="#119A4C" transform="translate(226,6.9375)"/>
<path d="M0 0 C1.134375 0.00902344 2.26875 0.01804687 3.4375 0.02734375 C4.283125 0.03894531 5.12875 0.05054688 6 0.0625 C6 4.46905633 5.31787083 5.69384159 3.09765625 9.375 C2.46327637 10.4362207 1.82889648 11.49744141 1.17529297 12.59082031 C0.47124105 13.74817611 -0.23302944 14.90539898 -0.9375 16.0625 C-1.66331072 17.26877697 -2.38839606 18.47549066 -3.11279297 19.68261719 C-5.01686351 22.85002837 -6.93198436 26.01060081 -8.85064697 29.16918945 C-9.96933058 31.01197877 -11.08552639 32.85624681 -12.20068359 34.70117188 C-17.11575562 42.83263662 -22.05443702 50.94955399 -27 59.0625 C-28.19549227 61.02593222 -29.39081334 62.98946869 -30.5859375 64.953125 C-31.15376953 65.88608398 -31.72160156 66.81904297 -32.30664062 67.78027344 C-33.14485352 69.15747559 -33.14485352 69.15747559 -34 70.5625 C-34.82661133 71.92036621 -34.82661133 71.92036621 -35.66992188 73.30566406 C-37.44678564 76.22450529 -39.22341175 79.14349107 -41 82.0625 C-41.52938171 82.93213379 -41.52938171 82.93213379 -42.06945801 83.81933594 C-44.37636842 87.60909897 -46.6822038 91.399513 -48.98681641 95.19067383 C-49.73583196 96.42248469 -50.48517216 97.65409822 -51.23486328 98.88549805 C-54.89841436 104.90348026 -58.55246726 110.91767481 -62 117.0625 C-64.63262969 116.70724258 -65.72520069 116.40083374 -67.42871094 114.3034668 C-67.85958008 113.54718994 -68.29044922 112.79091309 -68.734375 112.01171875 C-69.22260742 111.17286133 -69.71083984 110.33400391 -70.21386719 109.46972656 C-70.72079102 108.5722168 -71.22771484 107.67470703 -71.75 106.75 C-72.81019211 104.924439 -73.87269227 103.10021643 -74.9375 101.27734375 C-75.71480469 99.94098877 -75.71480469 99.94098877 -76.5078125 98.57763672 C-79.46126229 93.59948886 -82.70986919 88.82351282 -86 84.0625 C-89.19064913 87.85814806 -91.80577124 91.86076183 -94.3125 96.125 C-94.69913818 96.77605713 -95.08577637 97.42711426 -95.48413086 98.09790039 C-96.66101534 100.08324282 -97.83173024 102.07207776 -99 104.0625 C-99.36158203 104.67834961 -99.72316406 105.29419922 -100.09570312 105.92871094 C-102.07305298 109.30129363 -104.04070126 112.67940218 -106 116.0625 C-107.74316406 115.95141602 -107.74316406 115.95141602 -110 115.0625 C-111.54612838 113.00280668 -112.82832513 111.05501238 -114.109375 108.83984375 C-114.48104797 108.21976944 -114.85272095 107.59969513 -115.23565674 106.96083069 C-116.41893122 104.98065166 -117.58453494 102.99070267 -118.75 101 C-119.54963812 99.65491872 -120.35040637 98.31050861 -121.15234375 96.96679688 C-123.11475642 93.67300633 -125.06138519 90.37034847 -127 87.0625 C-128.485 88.0525 -128.485 88.0525 -130 89.0625 C-130 87.7425 -130 86.4225 -130 85.0625 C-129.34 85.0625 -128.68 85.0625 -128 85.0625 C-127.87625 84.32 -127.7525 83.5775 -127.625 82.8125 C-127.04513299 80.26108515 -126.26291261 78.3357427 -125 76.0625 C-124.34 76.0625 -123.68 76.0625 -123 76.0625 C-122.34 74.4125 -121.68 72.7625 -121 71.0625 C-120.34 71.0625 -119.68 71.0625 -119 71.0625 C-118.67 69.4125 -118.34 67.7625 -118 66.0625 C-114.87442699 68.79367894 -112.92192486 72.22920588 -110.8125 75.75 C-110.44447266 76.35650391 -110.07644531 76.96300781 -109.69726562 77.58789062 C-108.79435074 79.07711388 -107.89665304 80.56949815 -107 82.0625 C-104.04022023 78.54512754 -101.72356559 75.00566859 -99.53125 70.96875 C-99.05611465 70.09969025 -99.05611465 70.09969025 -98.57138062 69.21307373 C-97.89464719 67.97442 -97.22000639 66.73462103 -96.54730225 65.49377441 C-94.76317746 62.20376471 -92.96284476 58.9226367 -91.1640625 55.640625 C-90.8057132 54.98592224 -90.44736389 54.33121948 -90.07815552 53.65667725 C-87.0722536 48.17281974 -83.99488791 42.73234981 -80.875 37.3125 C-77.61181752 31.64299562 -74.37333205 25.96120501 -71.18359375 20.25 C-70.86090515 19.67231873 -70.53821655 19.09463745 -70.20574951 18.49945068 C-68.61931 15.65771441 -67.03568026 12.81444273 -65.45458984 9.96972656 C-64.88820801 8.95362305 -64.32182617 7.93751953 -63.73828125 6.890625 C-63.23337158 5.9821582 -62.72846191 5.07369141 -62.20825195 4.13769531 C-61 2.0625 -61 2.0625 -60 1.0625 C-58.29227642 0.97536169 -56.58101351 0.95549993 -54.87109375 0.96484375 C-53.31938477 0.96967773 -53.31938477 0.96967773 -51.73632812 0.97460938 C-50.64771484 0.98298828 -49.55910156 0.99136719 -48.4375 1 C-46.7987793 1.00676758 -46.7987793 1.00676758 -45.12695312 1.01367188 C-42.41791505 1.02550174 -39.70898401 1.04198457 -37 1.0625 C-36.505 2.0525 -36.505 2.0525 -36 3.0625 C-37.30419922 5.45410156 -37.30419922 5.45410156 -39.3046875 8.453125 C-40.02881836 9.54802246 -40.75294922 10.64291992 -41.49902344 11.77099609 C-42.29093782 12.95154959 -43.08293159 14.13204984 -43.875 15.3125 C-44.6730644 16.51456363 -45.47026434 17.71720162 -46.26660156 18.92041016 C-47.82341984 21.27159448 -49.38347315 23.6205719 -50.94628906 25.96777344 C-53.92782659 30.46063717 -56.83660825 34.99596886 -59.72265625 39.55078125 C-61.58700117 42.46551049 -63.53754107 45.31580363 -65.49609375 48.16796875 C-66.10549805 49.06918457 -66.71490234 49.97040039 -67.34277344 50.89892578 C-68.5512485 52.68476916 -69.77411309 54.46097858 -71.01269531 56.22607422 C-71.55893555 57.03963379 -72.10517578 57.85319336 -72.66796875 58.69140625 C-73.16578857 59.41400635 -73.6636084 60.13660645 -74.17651367 60.88110352 C-75.26613518 63.10839667 -75.26613518 63.10839667 -74.25366211 65.64550781 C-72.16281309 69.6765507 -69.80831154 73.53282518 -67.4609375 77.41796875 C-66 80.0625 -66 80.0625 -66 82.0625 C-62.44273991 80.63741447 -61.12910393 79.1336792 -59.30078125 75.80078125 C-58.81907471 74.93775391 -58.33736816 74.07472656 -57.84106445 73.18554688 C-57.33663818 72.25806641 -56.83221191 71.33058594 -56.3125 70.375 C-55.23041907 68.43289542 -54.14708103 66.49149074 -53.0625 64.55078125 C-52.53527344 63.60154785 -52.00804687 62.65231445 -51.46484375 61.67431641 C-49.64408349 58.42790086 -47.74474355 55.24390881 -45.8125 52.0625 C-42.818553 47.13171219 -39.88530161 42.16736878 -36.98046875 37.18359375 C-36.61556839 36.55820709 -36.25066803 35.93282043 -35.87471008 35.28848267 C-33.64879669 31.47314986 -33.64879669 31.47314986 -31.42935181 27.65405273 C-29.34154235 24.05461952 -27.22826865 20.47222046 -25.08837891 16.90350342 C-23.94868535 14.97570078 -22.84829836 13.02805169 -21.74609375 11.07861328 C-20.98834905 9.7924862 -20.22927473 8.50714138 -19.46875 7.22265625 C-19.13943481 6.61908798 -18.81011963 6.01551971 -18.4708252 5.3936615 C-17.02502002 3.01354822 -15.78453365 1.3050903 -13.06713867 0.46482849 C-8.75130749 -0.10773488 -4.34858775 -0.04529779 0 0 Z " fill="#DE7339" transform="translate(226,6.9375)"/>
<path d="M0 0 C1.65 0 3.3 0 5 0 C4.67 3.3 4.34 6.6 4 10 C5.32 10.33 6.64 10.66 8 11 C8.99 11.495 8.99 11.495 10 12 C9.979375 10.948125 9.95875 9.89625 9.9375 8.8125 C9.98896802 5.67295096 10.26517187 3.03116604 11 0 C12.65 0 14.3 0 16 0 C15.67 3.96 15.34 7.92 15 12 C15.66 11.34 16.32 10.68 17 10 C19.5 9.75 19.5 9.75 22 10 C24 12 24 12 24.25 15.75 C24.13424244 19.49509759 23.69855603 22.60288794 22 26 C19.5625 27.4375 19.5625 27.4375 17 28 C15.515 27.505 15.515 27.505 14 27 C14 26.34 14 25.68 14 25 C13.34 25 12.68 25 12 25 C12 25.66 12 26.32 12 27 C10.92621094 26.98839844 9.85242188 26.97679688 8.74609375 26.96484375 C7.30989759 26.95545685 5.87369952 26.94635762 4.4375 26.9375 C3.38079102 26.92493164 3.38079102 26.92493164 2.30273438 26.91210938 C-1.21252202 26.89591004 -4.41448483 27.06211061 -7.91015625 27.5859375 C-11 28 -11 28 -12.875 26.6875 C-14 25 -14 25 -15 23 C-15.66 24.32 -16.32 25.64 -17 27 C-19.97 27 -22.94 27 -26 27 C-26.33 25.35 -26.66 23.7 -27 22 C-27.61875 23.2065625 -27.61875 23.2065625 -28.25 24.4375 C-30 27 -30 27 -32 27.875 C-34 28 -34 28 -37 27 C-37.495 26.01 -37.495 26.01 -38 25 C-38.33 25.66 -38.66 26.32 -39 27 C-43.33333333 27 -47.66666667 27 -52 27 C-52.66 27.20625 -53.32 27.4125 -54 27.625 C-56 28 -56 28 -59 26 C-61.55936559 26.32852082 -61.55936559 26.32852082 -64 27 C-66.33333333 27 -68.66666667 27 -71 27 C-69.78353659 4.78353659 -69.78353659 4.78353659 -67 2 C-65.1875 2.0859375 -65.1875 2.0859375 -63 2.375 C-62.278125 2.46523437 -61.55625 2.55546875 -60.8125 2.6484375 C-59 3 -59 3 -58 4 C-57.62922314 9.56165284 -57.818617 12.297086 -61 17 C-60.67 17.66 -60.34 18.32 -60 19 C-59.79503906 18.43410156 -59.59007812 17.86820313 -59.37890625 17.28515625 C-59.10949219 16.55167969 -58.84007812 15.81820312 -58.5625 15.0625 C-58.29566406 14.33160156 -58.02882813 13.60070312 -57.75390625 12.84765625 C-57 11 -57 11 -56 10 C-53.0625 9.8125 -53.0625 9.8125 -50 10 C-49.34 10.66 -48.68 11.32 -48 12 C-47.67 11.34 -47.34 10.68 -47 10 C-44.03 10 -41.06 10 -38 10 C-37.505 10.99 -37.505 10.99 -37 12 C-36.01 11.34 -35.02 10.68 -34 10 C-31.4375 9.875 -31.4375 9.875 -29 10 C-28.34 10 -27.68 10 -27 10 C-25.68 10 -24.36 10 -23 10 C-22.505 10.99 -22.505 10.99 -22 12 C-21.67 11.34 -21.34 10.68 -21 10 C-14.73 10 -8.46 10 -2 10 C-1.34 6.7 -0.68 3.4 0 0 Z M-64 7 C-63 11 -63 11 -63 11 Z M-43 15 C-44.14352916 17.28705831 -44.10334439 18.59264762 -44.0625 21.125 C-44.041875 22.40375 -44.02125 23.6825 -44 25 C-43.67 25 -43.34 25 -43 25 C-42.67 21.7 -42.34 18.4 -42 15 C-42.33 15 -42.66 15 -43 15 Z M-8 15 C-9.35439668 17.70879335 -9.06501451 20.00933268 -9 23 C-8.67 23 -8.34 23 -8 23 C-7.67 20.36 -7.34 17.72 -7 15 C-7.33 15 -7.66 15 -8 15 Z M3 15 C2.67 17.64 2.34 20.28 2 23 C4.1519437 19.77208445 4.20086443 18.71599191 4 15 C3.67 15 3.34 15 3 15 Z M-3 17 C-2 20 -2 20 -2 20 Z M-55 20 C-54.67 20.99 -54.34 21.98 -54 23 C-53.67 22.01 -53.34 21.02 -53 20 C-53.66 20 -54.32 20 -55 20 Z M-33 20 C-32 22 -32 22 -32 22 Z M18 20 C19 23 19 23 19 23 Z M-50 23 C-49 25 -49 25 -49 25 Z M7 23 C8 25 8 25 8 25 Z " fill="#E2A47F" transform="translate(468,91)"/>
<path d="M0 0 C2.97 0 5.94 0 9 0 C12.85350692 7.58783321 16.54069768 15.2242231 20 23 C23.93605483 16.39831726 27.71825899 9.79023712 31.0546875 2.86328125 C32 1 32 1 33 0 C34.99958364 -0.04080783 37.00045254 -0.04254356 39 0 C40.27182393 2.37447413 41.54248424 4.74955897 42.8125 7.125 C43.16892578 7.79015625 43.52535156 8.4553125 43.89257812 9.140625 C44.93446945 11.09058675 45.96786758 13.0448593 47 15 C47.58136719 16.09054688 48.16273438 17.18109375 48.76171875 18.3046875 C50 21 50 21 50 24 C50.66 24 51.32 24 52 24 C52.10570312 23.29617187 52.21140625 22.59234375 52.3203125 21.8671875 C53.08826875 18.6276479 54.33529084 16.07419416 55.875 13.125 C58.09524158 8.80193346 60.16048341 4.49659611 62 0 C64.97 0 67.94 0 71 0 C72.15170874 3.45512623 71.92778335 3.77951286 70.41015625 6.88671875 C70.04156494 7.65298584 69.67297363 8.41925293 69.29321289 9.20874023 C68.88707764 10.02673096 68.48094238 10.84472168 68.0625 11.6875 C67.45039673 12.94832397 67.45039673 12.94832397 66.82592773 14.23461914 C65.56211486 16.8289156 64.2834341 19.41536117 63 22 C62.60941406 22.78955078 62.21882813 23.57910156 61.81640625 24.39257812 C59.56470474 28.9388336 57.28858867 33.47221665 55 38 C54.33248041 39.33290653 53.66532899 40.66599867 53 42 C51.68 42 50.36 42 49 42 C42.5 29 42.5 29 36 16 C32.98749575 19.63383325 31.05654628 23.66139954 29 27.875 C28.65710938 28.56980469 28.31421875 29.26460937 27.9609375 29.98046875 C27.28881906 31.34266299 26.61819774 32.70559715 25.94921875 34.06933594 C24.64620277 36.7196061 23.32404447 39.36018634 22 42 C20.68 42 19.36 42 18 42 C15.75575204 37.39292421 13.51379655 32.7847426 11.27392578 28.17553711 C10.51218009 26.60882726 9.7498171 25.04241739 8.98681641 23.47631836 C7.88800877 21.22068261 6.79145108 18.96396502 5.6953125 16.70703125 C5.3556546 16.01100296 5.0159967 15.31497467 4.66604614 14.59785461 C0 4.97509758 0 4.97509758 0 0 Z " fill="#2AA25E" transform="translate(389,42)"/>
<path d="M0 0 C1.15177734 -0.020625 2.30355469 -0.04125 3.49023438 -0.0625 C12.77891286 -0.10464942 21.55189648 0.47330067 28.5625 7.1875 C29.284375 7.85652344 30.00625 8.52554688 30.75 9.21484375 C34.82184012 13.78688837 34.94725489 17.60233698 34.8046875 23.56640625 C34.25201318 29.69039428 31.16924699 32.96958843 26.76953125 36.85546875 C18.56769099 42.03787047 10.42321534 41.61227146 1.0625 41.4375 C-0.34633986 41.42242613 -1.75519532 41.4087425 -3.1640625 41.39648438 C-6.58894396 41.36129724 -10.01301763 41.31206079 -13.4375 41.25 C-13.46214705 35.57169922 -13.48033462 29.89342931 -13.49243164 24.21508789 C-13.49747256 22.28181415 -13.50430519 20.34854424 -13.51293945 18.4152832 C-13.52501565 15.64273128 -13.53073057 12.87022959 -13.53515625 10.09765625 C-13.54031754 9.22786636 -13.54547882 8.35807648 -13.55079651 7.46192932 C-13.55099185 5.39094186 -13.49958168 3.32005676 -13.4375 1.25 C-10.83420929 -1.35329071 -3.4948049 0.01518655 0 0 Z M-3.4375 8.25 C-3.4375 16.5 -3.4375 24.75 -3.4375 33.25 C0.831875 33.3428125 0.831875 33.3428125 5.1875 33.4375 C6.07260254 33.46481201 6.95770508 33.49212402 7.86962891 33.52026367 C14.10115682 33.58548223 18.23616568 32.39267635 22.9375 28.0625 C25.06264148 24.38437052 25.57531874 21.33220071 24.5625 17.25 C22.2303314 13.03067024 19.89403181 10.74124475 15.34375 9.0625 C11.31534759 8.19689287 7.73987148 8.05217042 3.625 8.125 C1.294375 8.16625 -1.03625 8.2075 -3.4375 8.25 Z " fill="#1D9C54" transform="translate(493.4375,41.75)"/>
<path d="M0 0 C5.3226629 3.62298903 9.78783545 6.92915107 11.859375 13.265625 C12.818256 18.98955751 12.34586647 23.18347192 9.234375 28.140625 C4.47839454 34.43758747 -1.50424195 37.65181051 -9.140625 39.265625 C-18.70254965 40.22052706 -27.50405487 39.04390402 -35.515625 33.515625 C-39.87479157 29.91534168 -42.58040924 26.52554716 -43.55078125 20.87890625 C-43.93646027 14.42125496 -42.2705587 10.18493661 -38.140625 5.265625 C-35.890625 3.015625 -35.890625 3.015625 -33.140625 1.265625 C-32.5734375 0.894375 -32.00625 0.523125 -31.421875 0.140625 C-22.59837722 -4.74623531 -8.86773397 -4.88069079 0 0 Z M-32.140625 12.265625 C-33.34622058 16.34023286 -33.56572271 20.07003768 -32.140625 24.078125 C-28.51132512 28.04767174 -23.60157328 30.84169358 -18.1953125 31.50390625 C-12.10311412 31.7113467 -7.30827443 30.57663391 -2.140625 27.265625 C0.49468725 24.56756722 1.72831878 22.84387648 2.04296875 19.0546875 C1.82510473 14.82390884 1.2107675 12.71198844 -1.453125 9.328125 C-10.80449396 2.15149301 -24.40069884 3.07857383 -32.140625 12.265625 Z " fill="#28A05D" transform="translate(380.140625,44.734375)"/>
<path d="M0 0 C1.32 0 2.64 0 4 0 C4 3.63 4 7.26 4 11 C4.33 10.67 4.66 10.34 5 10 C6.99952758 9.95653201 9.00039988 9.960008 11 10 C11.99 10 12.98 10 14 10 C17 10 20 10 23 10 C23 10.66 23 11.32 23 12 C23.99 11.34 24.98 10.68 26 10 C29.1875 9.875 29.1875 9.875 32 10 C31.625 12.4375 31.625 12.4375 31 15 C30.34 15.33 29.68 15.66 29 16 C29.66 16.66 30.32 17.32 31 18 C31.4375 21.4375 31.4375 21.4375 31 25 C29.0625 27 29.0625 27 26 28 C22.94472236 27.93358092 20.0046127 27.54331777 17 27 C17 26.01 17 25.02 17 24 C16.505 25.485 16.505 25.485 16 27 C13.66666667 27 11.33333333 27 9 27 C8.360625 27.20625 7.72125 27.4125 7.0625 27.625 C5 28 5 28 2 26 C1.67 26.33 1.34 26.66 1 27 C-6.41304348 28.19565217 -6.41304348 28.19565217 -10 27 C-11.66621616 26.96125079 -13.33394172 26.9549714 -15 27 C-15 24.03 -15 21.06 -15 18 C-15.99 20.97 -16.98 23.94 -18 27 C-19.65 27 -21.3 27 -23 27 C-23 25.02 -23 23.04 -23 21 C-23.66 22.98 -24.32 24.96 -25 27 C-26.65 27 -28.3 27 -30 27 C-30 19.08 -30 11.16 -30 3 C-28.68 2.67 -27.36 2.34 -26 2 C-25.34 3.65 -24.68 5.3 -24 7 C-23.67 5.68 -23.34 4.36 -23 3 C-21.68 2.67 -20.36 2.34 -19 2 C-18.34 3.32 -17.68 4.64 -17 6 C-16.34 4.68 -15.68 3.36 -15 2 C-11 3 -11 3 -7 4 C-7.33 5.65 -7.66 7.3 -8 9 C-9.65 9 -11.3 9 -13 9 C-8.87831311 10.62950412 -6.29299643 11.26264601 -2 10 C-1.90912109 9.04287109 -1.90912109 9.04287109 -1.81640625 8.06640625 C-1.73261719 7.24011719 -1.64882813 6.41382812 -1.5625 5.5625 C-1.48128906 4.73878906 -1.40007812 3.91507812 -1.31640625 3.06640625 C-1 1 -1 1 0 0 Z M-14 12 C-13 15 -13 15 -13 15 Z M2 13 C3 15 3 15 3 15 Z M-4 15 C-4.33 17.64 -4.66 20.28 -5 23 C-2.8480563 19.77208445 -2.79913557 18.71599191 -3 15 C-3.33 15 -3.66 15 -4 15 Z M18 15 C19 17 19 17 19 17 Z M12 16 C13 18 13 18 13 18 Z M23 18 C23.33 19.65 23.66 21.3 24 23 C24.66 23 25.32 23 26 23 C25.65213292 21.02463255 25.65213292 21.02463255 25 19 C24.34 18.67 23.68 18.34 23 18 Z M6 20 C6.33 20.99 6.66 21.98 7 23 C7.33 22.01 7.66 21.02 8 20 C7.34 20 6.68 20 6 20 Z " fill="#E7B596" transform="translate(360,91)"/>
<path d="M0 0 C0.79470703 -0.01160156 1.58941406 -0.02320313 2.40820312 -0.03515625 C8.26115399 -0.00658204 13.13016038 1.23520898 18.5625 3.375 C18.5625 6.015 18.5625 8.655 18.5625 11.375 C15.09308454 10.91677532 11.88854951 10.48368317 8.5625 9.375 C5.94385839 9.2265056 3.3692523 9.1439973 0.75 9.125 C0.05068359 9.104375 -0.64863281 9.08375 -1.36914062 9.0625 C-7.42127287 9.01720808 -11.37942145 10.47940133 -15.8125 14.5625 C-17.96899758 18.29489967 -18.25784517 21.16218575 -17.4375 25.375 C-15.23820826 29.49867202 -12.433733 31.38506754 -8.0078125 32.8828125 C-2.55148981 33.92764025 3.03479111 33.58461817 8.5625 33.375 C8.5625 31.725 8.5625 30.075 8.5625 28.375 C5.5925 28.375 2.6225 28.375 -0.4375 28.375 C-0.4375 25.735 -0.4375 23.095 -0.4375 20.375 C5.8325 20.375 12.1025 20.375 18.5625 20.375 C18.5625 26.645 18.5625 32.915 18.5625 39.375 C6.82038903 42.7703092 -4.92939694 44.58807233 -16.4375 39.375 C-22.40916977 36.0528059 -26.50756623 32.03873359 -28.4375 25.375 C-29.2757315 19.70007639 -28.7722215 15.16866216 -25.4375 10.375 C-18.0101646 2.43543457 -10.72642747 -0.15583188 0 0 Z " fill="#29A05C" transform="translate(273.4375,41.625)"/>
<path d="M0 0 C2.97 0 5.94 0 9 0 C9.33 0.99 9.66 1.98 10 3 C9.67 3.66 9.34 4.32 9 5 C7.35 5 5.7 5 4 5 C4 6.32 4 7.64 4 9 C4.99 9.33 5.98 9.66 7 10 C7.33 9.34 7.66 8.68 8 8 C9.45792884 7.94600264 10.91642712 7.90720823 12.375 7.875 C13.18710937 7.85179688 13.99921875 7.82859375 14.8359375 7.8046875 C17 8 17 8 19 10 C19.66 9.34 20.32 8.68 21 8 C23.9375 7.875 23.9375 7.875 27 8 C27.99 8 28.98 8 30 8 C37.33333333 8 44.66666667 8 52 8 C52.495 9.98 52.495 9.98 53 12 C53.66 10.68 54.32 9.36 55 8 C56.32 8 57.64 8 59 8 C58.39924839 13.23394555 56.69877339 17.49885836 54.5625 22.25 C54.24990234 22.96929687 53.93730469 23.68859375 53.61523438 24.4296875 C51.26607143 29.73392857 51.26607143 29.73392857 49 32 C48.01 32 47.02 32 46 32 C46.45822468 28.53058454 46.89131683 25.32604951 48 22 C47.60602665 19.36195411 47.60602665 19.36195411 47 17 C46.90203125 17.83144531 46.8040625 18.66289063 46.703125 19.51953125 C46.55359375 20.60621094 46.4040625 21.69289063 46.25 22.8125 C46.11078125 23.89144531 45.9715625 24.97039062 45.828125 26.08203125 C45 29 45 29 43.125 30.90625 C40.14928134 32.4378699 38.16845175 31.79211294 35 31 C34.375 28.625 34.375 28.625 34 26 C34.66 25.34 35.32 24.68 36 24 C35.67 23.67 35.34 23.34 35 23 C35.08963062 21.30858344 35.24577676 19.62040398 35.4375 17.9375 C35.53933594 17.01839844 35.64117188 16.09929687 35.74609375 15.15234375 C35.82988281 14.44207031 35.91367187 13.73179688 36 13 C35.34 13.33 34.68 13.66 34 14 C33.30906104 16.57951874 33.30906104 16.57951874 32.875 19.5625 C32.70742188 20.57441406 32.53984375 21.58632812 32.3671875 22.62890625 C32.18542969 23.80259766 32.18542969 23.80259766 32 25 C29.66666667 25 27.33333333 25 25 25 C24.38125 25.20625 23.7625 25.4125 23.125 25.625 C21 26 21 26 19.0625 25 C16.35978665 23.68959353 14.82997412 24.21389608 12 25 C12 23.02 12 21.04 12 19 C11.67 20.98 11.34 22.96 11 25 C6.05 25 1.1 25 -4 25 C-3.52436369 21.39533489 -3.04465047 17.79129441 -2.5625 14.1875 C-2.42779297 13.16333984 -2.29308594 12.13917969 -2.15429688 11.08398438 C-2.02216797 10.10107422 -1.89003906 9.11816406 -1.75390625 8.10546875 C-1.63345947 7.19949951 -1.5130127 6.29353027 -1.38891602 5.36010742 C-1 3 -1 3 0 0 Z M41 13 C40.67 15.64 40.34 18.28 40 21 C42.1519437 17.77208445 42.20086443 16.71599191 42 13 C41.67 13 41.34 13 41 13 Z M3 15 C2.67 16.98 2.34 18.96 2 21 C3.32 21 4.64 21 6 21 C6.33 19.02 6.66 17.04 7 15 C5.68 15 4.36 15 3 15 Z M22 18 C22.33 18.99 22.66 19.98 23 21 C23.33 20.01 23.66 19.02 24 18 C23.34 18 22.68 18 22 18 Z M27 21 C28 23 28 23 28 23 Z M39 25 C40 27 40 27 40 27 Z " fill="#D99064" transform="translate(501,93)"/>
<path d="M0 0 C1.25200195 -0.0309375 1.25200195 -0.0309375 2.52929688 -0.0625 C9.33070053 -0.10490938 15.08513497 0.82548972 20.4375 5.375 C22.52034018 9.36711035 22.77777299 12.83444781 21.9375 17.25 C20.0625 19.8125 20.0625 19.8125 17.9375 21.25 C17.2775 21.25 16.6175 21.25 15.9375 21.25 C18.67484407 26.18430631 22.22935946 29.95282338 26.07421875 34.04296875 C27.9375 36.25 27.9375 36.25 27.9375 38.25 C28.5975 38.25 29.2575 38.25 29.9375 38.25 C29.9375 39.24 29.9375 40.23 29.9375 41.25 C25.97687967 42.23235859 22.88251876 42.37646344 18.9375 41.25 C15.94778004 38.72524426 13.62862191 35.65794446 11.35058594 32.49365234 C7.72586887 27.58237663 4.82176141 25.95017865 -1.0625 24.25 C-1.0625 29.86 -1.0625 35.47 -1.0625 41.25 C-4.3625 41.25 -7.6625 41.25 -11.0625 41.25 C-10.94457014 35.57154468 -10.82034597 29.89327605 -10.69018555 24.21508789 C-10.64676959 22.28185815 -10.60509958 20.34858841 -10.56518555 18.4152832 C-10.50764369 15.64261798 -10.4439038 12.87015543 -10.37890625 10.09765625 C-10.36219376 9.22786636 -10.34548126 8.35807648 -10.32826233 7.46192932 C-10.11455829 -1.11779399 -7.82674747 0.0468317 0 0 Z M-1.0625 8.25 C-1.0625 11.22 -1.0625 14.19 -1.0625 17.25 C5.74128094 17.61242424 5.74128094 17.61242424 11.9375 15.25 C11.9375 13.27 11.9375 11.29 11.9375 9.25 C9.29291621 7.92770811 7.25988699 8.15322806 4.3125 8.1875 C2.80816406 8.20103516 2.80816406 8.20103516 1.2734375 8.21484375 C0.11714844 8.23224609 0.11714844 8.23224609 -1.0625 8.25 Z " fill="#259D5A" transform="translate(309.0625,41.75)"/>
<path d="M0 0 C1.29349365 0.00523682 2.5869873 0.01047363 3.91967773 0.01586914 C4.9496714 0.01799156 4.9496714 0.01799156 6.00047302 0.02015686 C8.20144949 0.0257706 10.40232557 0.03832532 12.60327148 0.05102539 C14.09220231 0.05603863 15.58113473 0.06060184 17.07006836 0.06469727 C20.72700223 0.07574446 24.38387707 0.09301826 28.04077148 0.11352539 C28.04077148 2.75352539 28.04077148 5.39352539 28.04077148 8.11352539 C20.78077148 8.11352539 13.52077148 8.11352539 6.04077148 8.11352539 C6.04077148 11.08352539 6.04077148 14.05352539 6.04077148 17.11352539 C13.30077148 17.11352539 20.56077148 17.11352539 28.04077148 17.11352539 C28.04077148 19.42352539 28.04077148 21.73352539 28.04077148 24.11352539 C20.78077148 24.11352539 13.52077148 24.11352539 6.04077148 24.11352539 C6.04077148 27.08352539 6.04077148 30.05352539 6.04077148 33.11352539 C13.63077148 33.44352539 21.22077148 33.77352539 29.04077148 34.11352539 C29.04077148 36.42352539 29.04077148 38.73352539 29.04077148 41.11352539 C18.15077148 41.11352539 7.26077148 41.11352539 -3.95922852 41.11352539 C-3.98213537 35.43517142 -4.00206309 29.75697658 -4.01416016 24.07861328 C-4.01920108 22.14533954 -4.0260337 20.21206963 -4.03466797 18.27880859 C-4.04674416 15.50625667 -4.05245908 12.73375498 -4.05688477 9.96118164 C-4.06204605 9.09139175 -4.06720734 8.22160187 -4.07252502 7.32545471 C-4.07272037 5.25446725 -4.02131019 3.18358215 -3.95922852 1.11352539 C-2.95922852 0.11352539 -2.95922852 0.11352539 0 0 Z " fill="#0C9447" transform="translate(537.959228515625,41.886474609375)"/>
<path d="M0 0 C1.32 0 2.64 0 4 0 C4 3.63 4 7.26 4 11 C4.33 10.67 4.66 10.34 5 10 C6.99952758 9.95653201 9.00039988 9.960008 11 10 C11.99 10 12.98 10 14 10 C17 10 20 10 23 10 C23 10.66 23 11.32 23 12 C23.99 11.34 24.98 10.68 26 10 C29.1875 9.875 29.1875 9.875 32 10 C31.625 12.4375 31.625 12.4375 31 15 C30.34 15.33 29.68 15.66 29 16 C29.66 16.66 30.32 17.32 31 18 C31.4375 21.4375 31.4375 21.4375 31 25 C29.0625 27 29.0625 27 26 28 C22.94472236 27.93358092 20.0046127 27.54331777 17 27 C17 26.01 17 25.02 17 24 C16.67 24.99 16.34 25.98 16 27 C13.66666667 27 11.33333333 27 9 27 C8.360625 27.20625 7.72125 27.4125 7.0625 27.625 C5 28 5 28 2 26 C1.34 26.33 0.68 26.66 0 27 C0.33 19.08 0.66 11.16 1 3 C0.67 5.97 0.34 8.94 0 12 C-2.97 11.505 -2.97 11.505 -6 11 C-4.68 10.67 -3.36 10.34 -2 10 C-1.93941406 9.36191406 -1.87882812 8.72382812 -1.81640625 8.06640625 C-1.73261719 7.24011719 -1.64882813 6.41382812 -1.5625 5.5625 C-1.48128906 4.73878906 -1.40007812 3.91507812 -1.31640625 3.06640625 C-1 1 -1 1 0 0 Z M2 13 C3 15 3 15 3 15 Z M18 15 C19 17 19 17 19 17 Z M12 16 C13 18 13 18 13 18 Z M23 18 C23.33 19.65 23.66 21.3 24 23 C24.66 23 25.32 23 26 23 C25.65213292 21.02463255 25.65213292 21.02463255 25 19 C24.34 18.67 23.68 18.34 23 18 Z M6 20 C6.33 20.99 6.66 21.98 7 23 C7.33 22.01 7.66 21.02 8 20 C7.34 20 6.68 20 6 20 Z " fill="#E8BA9D" transform="translate(360,91)"/>
<path d="M0 0 C2.97 0 5.94 0 9 0 C9.33 13.86 9.66 27.72 10 42 C6.37 41.67 2.74 41.34 -1 41 C-1.02467609 35.48242521 -1.04284856 29.96488239 -1.05493164 24.44726562 C-1.05996763 22.56933025 -1.06679671 20.6913988 -1.07543945 18.81347656 C-1.08753713 16.11782868 -1.09323557 13.42223253 -1.09765625 10.7265625 C-1.10281754 9.88380768 -1.10797882 9.04105286 -1.11329651 8.17276001 C-1.11387171 2.22774341 -1.11387171 2.22774341 0 0 Z " fill="#33A263" transform="translate(463,42)"/>
<path d="M0 0 C1.546875 0.0309375 1.546875 0.0309375 3.125 0.0625 C4.115 0.0625 5.105 0.0625 6.125 0.0625 C8.45833333 0.0625 10.79166667 0.0625 13.125 0.0625 C14.28806443 3.61200034 14.04865049 6.62073948 13.6875 10.3125 C13.58566406 11.39015625 13.48382812 12.4678125 13.37890625 13.578125 C13.29511719 14.39796875 13.21132813 15.2178125 13.125 16.0625 C12.465 15.7325 11.805 15.4025 11.125 15.0625 C11.455 11.7625 11.785 8.4625 12.125 5.0625 C11.135 5.5575 11.135 5.5575 10.125 6.0625 C9.43406104 8.64201874 9.43406104 8.64201874 9 11.625 C8.83242188 12.63691406 8.66484375 13.64882812 8.4921875 14.69140625 C8.37101563 15.47386719 8.24984375 16.25632812 8.125 17.0625 C5.79166667 17.0625 3.45833333 17.0625 1.125 17.0625 C0.526875 17.26875 -0.07125 17.475 -0.6875 17.6875 C-2.875 18.0625 -2.875 18.0625 -7.875 16.0625 C-7.545 11.1125 -7.215 6.1625 -6.875 1.0625 C-5.885 1.0625 -4.895 1.0625 -3.875 1.0625 C-2.875 0.0625 -2.875 0.0625 0 0 Z M-1.875 10.0625 C-1.545 11.0525 -1.215 12.0425 -0.875 13.0625 C-0.545 12.0725 -0.215 11.0825 0.125 10.0625 C-0.535 10.0625 -1.195 10.0625 -1.875 10.0625 Z M3.125 13.0625 C4.125 15.0625 4.125 15.0625 4.125 15.0625 Z " fill="#E6B291" transform="translate(524.875,100.9375)"/>
<path d="M0 0 C3.96 0 7.92 0 12 0 C12.33 1.65 12.66 3.3 13 5 C13.99 4.67 14.98 4.34 16 4 C16 6.97 16 9.94 16 13 C17.32 13 18.64 13 20 13 C20 13.66 20 14.32 20 15 C17.39761763 15.41626139 14.79534235 15.80854441 12.1875 16.1875 C11.44951172 16.30802734 10.71152344 16.42855469 9.95117188 16.55273438 C4.47279143 17.32119498 4.47279143 17.32119498 2.05078125 15.67578125 C1 14 1 14 0 12 C-0.66 13.32 -1.32 14.64 -2 16 C-2.99 15.67 -3.98 15.34 -5 15 C-5.33 10.71 -5.66 6.42 -6 2 C-5.34 1.67 -4.68 1.34 -4 1 C-4 3.97 -4 6.94 -4 10 C-3.34 10 -2.68 10 -2 10 C-2 8.02 -2 6.04 -2 4 C-1.34 4 -0.68 4 0 4 C0 2.68 0 1.36 0 0 Z M7 4 C5.64560332 6.70879335 5.93498549 9.00933268 6 12 C6.33 12 6.66 12 7 12 C7.33 9.36 7.66 6.72 8 4 C7.67 4 7.34 4 7 4 Z " fill="#E4AE8D" transform="translate(453,102)"/>
<path d="M0 0 C2.875 -0.125 2.875 -0.125 6 0 C6.66 0.66 7.32 1.32 8 2 C8.33 1.34 8.66 0.68 9 0 C11.97 0 14.94 0 18 0 C17.85764543 1.72945653 17.71095618 3.45855654 17.5625 5.1875 C17.48128906 6.15042969 17.40007812 7.11335938 17.31640625 8.10546875 C17.02333849 10.78649602 16.57296246 13.3662986 16 16 C15.01 16 14.02 16 13 16 C13 13.03 13 10.06 13 7 C12.34 10.3 11.68 13.6 11 17 C10.13375 16.835 9.2675 16.67 8.375 16.5 C5.02251659 15.91909293 5.02251659 15.91909293 1.6875 16 C0.800625 16 -0.08625 16 -1 16 C-2 15 -2 15 -2.1875 11.375 C-2.15040203 7.26454534 -1.29581353 3.88744058 0 0 Z M1 10 C1.33 10.99 1.66 11.98 2 13 C2.33 12.01 2.66 11.02 3 10 C2.34 10 1.68 10 1 10 Z M6 13 C7 15 7 15 7 15 Z " fill="#DD9166" transform="translate(412,101)"/>
<path d="M0 0 C10.23 0 20.46 0 31 0 C31 2.64 31 5.28 31 8 C23.74 8 16.48 8 9 8 C9 10.97 9 13.94 9 17 C16.26 17 23.52 17 31 17 C31 19.31 31 21.62 31 24 C23.74 24 16.48 24 9 24 C9 26.97 9 29.94 9 33 C16.59 33.33 24.18 33.66 32 34 C32 36.31 32 38.62 32 41 C31.67 41 31.34 41 31 41 C31 39.02 31 37.04 31 35 C23.41 35 15.82 35 8 35 C8 31.04 8 27.08 8 23 C14.93 23 21.86 23 29 23 C29 21.35 29 19.7 29 18 C21.74 18 14.48 18 7 18 C7 14.04 7 10.08 7 6 C14.26 6 21.52 6 29 6 C29 4.68 29 3.36 29 2 C19.43 2 9.86 2 0 2 C0 1.34 0 0.68 0 0 Z " fill="#74BB94" transform="translate(535,42)"/>
<path d="M0 0 C2.0625 0.4375 2.0625 0.4375 4 1 C4.33 2.32 4.66 3.64 5 5 C5.33 3.68 5.66 2.36 6 1 C7.9375 0.4375 7.9375 0.4375 10 0 C11.85694854 1.85694854 11.63064615 4.50373748 12.01171875 6.9921875 C12 9 12 9 10 12 C10 8.7 10 5.4 10 2 C9.01 2 8.02 2 7 2 C7 4.31 7 6.62 7 9 C7.33 9 7.66 9 8 9 C8 13.95 8 18.9 8 24 C8.99 23.67 9.98 23.34 11 23 C11 23.66 11 24.32 11 25 C9.35 25 7.7 25 6 25 C6 23.02 6 21.04 6 19 C5.34 20.98 4.68 22.96 4 25 C2.35 25 0.7 25 -1 25 C-1.02886984 21.02084841 -1.04675406 17.04172347 -1.0625 13.0625 C-1.07087891 11.92619141 -1.07925781 10.78988281 -1.08789062 9.61914062 C-1.09111328 8.53955078 -1.09433594 7.45996094 -1.09765625 6.34765625 C-1.10289307 5.34742432 -1.10812988 4.34719238 -1.11352539 3.31665039 C-1 1 -1 1 0 0 Z " fill="#E1AE8C" transform="translate(331,93)"/>
<path d="M0 0 C1.65 0 3.3 0 5 0 C4.67 3.3 4.34 6.6 4 10 C5.32 10.33 6.64 10.66 8 11 C8.66 11.33 9.32 11.66 10 12 C10 9.69 10 7.38 10 5 C10.33 5 10.66 5 11 5 C11.19473588 10.54997256 10.56154163 14.63220063 9 20 C8.92596322 22.33215844 8.90484114 24.66860788 9 27 C6.03 27 3.06 27 0 27 C0 26.67 0 26.34 0 26 C1.65 26 3.3 26 5 26 C5 25.34 5 24.68 5 24 C3.68 24 2.36 24 1 24 C0.67 21.36 0.34 18.72 0 16 C-0.99 16.33 -1.98 16.66 -3 17 C-3 15.02 -3 13.04 -3 11 C-5.31 11 -7.62 11 -10 11 C-10 10.67 -10 10.34 -10 10 C-7.36 10 -4.72 10 -2 10 C-1.34 6.7 -0.68 3.4 0 0 Z M3 15 C2.67 17.64 2.34 20.28 2 23 C4.1519437 19.77208445 4.20086443 18.71599191 4 15 C3.67 15 3.34 15 3 15 Z M7 23 C8 25 8 25 8 25 Z " fill="#E3A680" transform="translate(468,91)"/>
<path d="M0 0 C1.15177734 -0.020625 2.30355469 -0.04125 3.49023438 -0.0625 C10.70377871 -0.09523304 16.80228137 0.69140148 23.5625 3.25 C20.35449255 4.31933582 19.72419029 4.20893995 16.62890625 3.3515625 C10.94066175 1.97992907 5.32889259 1.80212916 -0.5 1.625 C-4.109375 1.50125 -7.71875 1.3775 -11.4375 1.25 C-11.4375 14.12 -11.4375 26.99 -11.4375 40.25 C-5.4665625 40.064375 -5.4665625 40.064375 0.625 39.875 C2.48717163 39.82400146 2.48717163 39.82400146 4.38696289 39.77197266 C11.09729395 39.57211718 11.09729395 39.57211718 17.62109375 38.1484375 C20.68204002 37.21348711 21.62792301 37.35136223 24.5625 38.25 C16.93067457 41.99706893 9.36253579 41.59246779 1.0625 41.4375 C-0.34633986 41.42242613 -1.75519532 41.4087425 -3.1640625 41.39648438 C-6.58894396 41.36129724 -10.01301763 41.31206079 -13.4375 41.25 C-13.46214705 35.57169922 -13.48033462 29.89342931 -13.49243164 24.21508789 C-13.49747256 22.28181415 -13.50430519 20.34854424 -13.51293945 18.4152832 C-13.52501565 15.64273128 -13.53073057 12.87022959 -13.53515625 10.09765625 C-13.54031754 9.22786636 -13.54547882 8.35807648 -13.55079651 7.46192932 C-13.55099185 5.39094186 -13.49958168 3.32005676 -13.4375 1.25 C-10.83420929 -1.35329071 -3.4948049 0.01518655 0 0 Z " fill="#A0CDB4" transform="translate(493.4375,41.75)"/>
<path d="M0 0 C2.97 0 5.94 0 9 0 C9 0.66 9 1.32 9 2 C9.99 1.34 10.98 0.68 12 0 C15.1875 -0.125 15.1875 -0.125 18 0 C17.625 2.4375 17.625 2.4375 17 5 C16.01 5.495 16.01 5.495 15 6 C15.66 6.66 16.32 7.32 17 8 C17.4375 11.4375 17.4375 11.4375 17 15 C14.8125 17 14.8125 17 12 18 C10.35 17.67 8.7 17.34 7 17 C7.33 11.72 7.66 6.44 8 1 C5.36 1 2.72 1 0 1 C0 0.67 0 0.34 0 0 Z M9 8 C9.33 9.65 9.66 11.3 10 13 C10.66 13 11.32 13 12 13 C11.65213292 11.02463255 11.65213292 11.02463255 11 9 C10.34 8.67 9.68 8.34 9 8 Z " fill="#D87740" transform="translate(374,101)"/>
<path d="M0 0 C1.62215675 0.00333092 1.62215675 0.00333092 3.27708435 0.00672913 C4.49827469 0.00680466 5.71946503 0.00688019 6.97766113 0.00695801 C8.32022644 0.0120654 9.66279134 0.01728141 11.00535583 0.02259827 C12.37156116 0.02446252 13.73776716 0.02588639 15.10397339 0.02688599 C18.70596654 0.03071058 22.30791959 0.04054035 25.90989685 0.05158997 C29.58298703 0.06180536 33.25608368 0.06638388 36.92918396 0.07142639 C44.14079081 0.08216268 51.35236459 0.09923838 58.56394958 0.12025452 C58.75144958 5.88587952 58.75144958 5.88587952 57.06394958 7.99525452 C56.56894958 8.36650452 56.07394958 8.73775452 55.56394958 9.12025452 C55.89394958 6.81025452 56.22394958 4.50025452 56.56394958 2.12025452 C37.75394958 2.12025452 18.94394958 2.12025452 -0.43605042 2.12025452 C-0.10605042 3.77025452 0.22394958 5.42025452 0.56394958 7.12025452 C-1.68384791 5.06791767 -2.43827462 4.11358191 -3.43605042 1.12025452 C-2.43605042 0.12025452 -2.43605042 0.12025452 0 0 Z " fill="#5DB37E" transform="translate(68.43605041503906,39.87974548339844)"/>
<path d="M0 0 C2.31 0 4.62 0 7 0 C7.33 1.65 7.66 3.3 8 5 C8.99 4.67 9.98 4.34 11 4 C11 6.97 11 9.94 11 13 C12.32 13 13.64 13 15 13 C15 13.66 15 14.32 15 15 C9.06390334 15.89316269 3.93024803 15.97040422 -2 15 C-2.05399736 13.54207116 -2.09279177 12.08357288 -2.125 10.625 C-2.15980469 9.40683594 -2.15980469 9.40683594 -2.1953125 8.1640625 C-2 6 -2 6 0 4 C0 6.97 0 9.94 0 13 C0.66 12.67 1.32 12.34 2 12 C2.68931344 9.65092125 2.68931344 9.65092125 3.125 6.9375 C3.29257812 6.01839844 3.46015625 5.09929687 3.6328125 4.15234375 C3.75398438 3.44207031 3.87515625 2.73179688 4 2 C2.68 1.34 1.36 0.68 0 0 Z " fill="#DA8A5D" transform="translate(458,102)"/>
<path d="M0 0 C2.5 0.25 2.5 0.25 4.5 2.25 C4.84916177 7.48742659 4.47346879 11.31632803 2.5 16.25 C0.50045254 16.29254356 -1.50041636 16.29080783 -3.5 16.25 C-5.37243981 14.37756019 -4.67380392 11.31340482 -4.6875 8.8125 C-4.70167969 7.63816406 -4.71585937 6.46382813 -4.73046875 5.25390625 C-4.44092294 1.47999564 -3.84101452 0.38410145 0 0 Z M-1.5 10.25 C-0.5 13.25 -0.5 13.25 -0.5 13.25 Z " fill="#D97D47" transform="translate(487.5,100.75)"/>
<path d="M0 0 C2.64 0 5.28 0 8 0 C8.02725341 1.7290774 8.04650987 3.45828176 8.0625 5.1875 C8.07410156 6.15042969 8.08570313 7.11335938 8.09765625 8.10546875 C8.00486622 10.85576513 7.62111685 13.32479591 7 16 C5.68 16 4.36 16 3 16 C3 15.01 3 14.02 3 13 C2.67 13.99 2.34 14.98 2 16 C1.01 16 0.02 16 -1 16 C-1.02712153 14.083412 -1.04645097 12.1667127 -1.0625 10.25 C-1.07410156 9.18265625 -1.08570313 8.1153125 -1.09765625 7.015625 C-1.01510087 4.46631499 -0.74617558 2.42066409 0 0 Z M4 4 C5 6 5 6 5 6 Z " fill="#E4AE8E" transform="translate(374,102)"/>
<path d="M0 0 C2.33294775 -0.04241723 4.66702567 -0.04092937 7 0 C7.33 0.33 7.66 0.66 8 1 C7.93621032 2.67012983 7.79971885 4.33780985 7.625 6 C7.53476562 6.9075 7.44453125 7.815 7.3515625 8.75 C7 11 7 11 6 12 C5.76807135 13.51469448 5.58784762 15.03754562 5.4375 16.5625 C5.31181641 17.80193359 5.31181641 17.80193359 5.18359375 19.06640625 C5.12300781 19.70449219 5.06242187 20.34257813 5 21 C2.23776722 18.23776722 2.42143709 15.79293383 2 12 C1.34 12 0.68 12 0 12 C-0.33 12.66 -0.66 13.32 -1 14 C-1.02705729 12.22925083 -1.04642195 10.45838289 -1.0625 8.6875 C-1.07410156 7.70136719 -1.08570313 6.71523437 -1.09765625 5.69921875 C-1 3 -1 3 0 0 Z M3 3 C4 7 4 7 4 7 Z " fill="#D67641" transform="translate(401,95)"/>
<path d="M0 0 C0.99 0 1.98 0 3 0 C3.33 2.31 3.66 4.62 4 7 C4.99 4.69 5.98 2.38 7 0 C7.99 0 8.98 0 10 0 C9.80664062 0.59425781 9.61328125 1.18851562 9.4140625 1.80078125 C7.42266784 8.13972563 6.05948769 14.44364086 5 21 C3.68 21.33 2.36 21.66 1 22 C0.93941406 21.10796875 0.87882812 20.2159375 0.81640625 19.296875 C0.73261719 18.12640625 0.64882813 16.9559375 0.5625 15.75 C0.48128906 14.58984375 0.40007812 13.4296875 0.31640625 12.234375 C0.09373181 9.14075913 0.09373181 9.14075913 -0.5625 6.75 C-1.17108351 4.31566595 -0.60007853 2.40031412 0 0 Z " fill="#D6753F" transform="translate(338,95)"/>
<path d="M0 0 C2.97 0 5.94 0 9 0 C9.33 0.99 9.66 1.98 10 3 C9.67 3.66 9.34 4.32 9 5 C7.35 5 5.7 5 4 5 C4 6.32 4 7.64 4 9 C4.99 9.33 5.98 9.66 7 10 C8.50934217 13.01868434 8.17510672 15.67297229 8 19 C7.34 19.99 6.68 20.98 6 22 C6.33 19.69 6.66 17.38 7 15 C5.68 15 4.36 15 3 15 C2.67 15.66 2.34 16.32 2 17 C2 15.68 2 14.36 2 13 C1.34 12.67 0.68 12.34 0 12 C0 8.04 0 4.08 0 0 Z " fill="#DFA784" transform="translate(501,93)"/>
<path d="M0 0 C0.99 0 1.98 0 3 0 C3.33 2.64 3.66 5.28 4 8 C4.99 7.01 5.98 6.02 7 5 C5.37308869 18.2293578 5.37308869 18.2293578 1 23 C0.01 23 -0.98 23 -2 23 C-1.54177532 19.53058454 -1.10868317 16.32604951 0 13 C0.06937062 10.77181559 0.08457084 8.54165476 0.0625 6.3125 C0.04896484 4.54326172 0.04896484 4.54326172 0.03515625 2.73828125 C0.02355469 1.83464844 0.01195312 0.93101563 0 0 Z " fill="#D87843" transform="translate(549,102)"/>
<path d="M0 0 C1.66611905 -0.042721 3.33382885 -0.04063832 5 0 C6 1 6 1 6.0625 4.0625 C6.041875 5.031875 6.02125 6.00125 6 7 C4.02 7 2.04 7 0 7 C0 8.32 0 9.64 0 11 C0.66 11 1.32 11 2 11 C2 10.34 2 9.68 2 9 C3.32 9 4.64 9 6 9 C5.8125 11.375 5.8125 11.375 5 14 C2.625 15.375 2.625 15.375 0 16 C-0.99 15.67 -1.98 15.34 -3 15 C-3.35050464 9.158256 -3.16727335 5.1468192 0 0 Z " fill="#DA7239" transform="translate(434,103)"/>
<path d="M0 0 C1.66611905 -0.042721 3.33382885 -0.04063832 5 0 C6 1 6 1 6.0625 4.0625 C6.041875 5.031875 6.02125 6.00125 6 7 C4.35 7.33 2.7 7.66 1 8 C1 8.99 1 9.98 1 11 C2.32 10.67 3.64 10.34 5 10 C4.67 11.65 4.34 13.3 4 15 C2.1875 15.625 2.1875 15.625 0 16 C-0.99 15.34 -1.98 14.68 -3 14 C-3.29296875 11.8359375 -3.29296875 11.8359375 -3.1875 9.375 C-3.16042969 8.55773437 -3.13335937 7.74046875 -3.10546875 6.8984375 C-3.07066406 6.27195312 -3.03585937 5.64546875 -3 5 C-2.34 5 -1.68 5 -1 5 C-0.67 3.35 -0.34 1.7 0 0 Z " fill="#DF9367" transform="translate(365,103)"/>
<path d="M0 0 C1.99954746 -0.04254356 4.00041636 -0.04080783 6 0 C7 1 7 1 7.09765625 2.84765625 C7.04882812 5.92382812 7.04882812 5.92382812 7 9 C4.69 9 2.38 9 0 9 C0.26676204 10.98491642 0.26676204 10.98491642 1 13 C1.99 13.33 2.98 13.66 4 14 C4 14.66 4 15.32 4 16 C2.33388095 16.042721 0.66617115 16.04063832 -1 16 C-2 15 -2 15 -2.1875 11.375 C-2.15040203 7.26454534 -1.29581353 3.88744058 0 0 Z " fill="#D87741" transform="translate(412,101)"/>
<path d="M0 0 C2.49505962 2.49505962 2.35948376 3.67328888 2.625 7.125 C2.69976562 8.03507812 2.77453125 8.94515625 2.8515625 9.8828125 C2.90054687 10.58148438 2.94953125 11.28015625 3 12 C0.03 11.505 0.03 11.505 -3 11 C-3 11.66 -3 12.32 -3 13 C-3.66 13 -4.32 13 -5 13 C-5 11.68 -5 10.36 -5 9 C-3.02 9 -1.04 9 1 9 C0.67 7.02 0.34 5.04 0 3 C-1.65 3 -3.3 3 -5 3 C-6.35482759 5.9806207 -7.05624776 8.41482726 -7.5 11.6875 C-8 15 -8 15 -10 17 C-12.625 17.125 -12.625 17.125 -15 17 C-14.67 16.34 -14.34 15.68 -14 15 C-13.01 15.33 -12.02 15.66 -11 16 C-10.95101563 15.32453125 -10.90203125 14.6490625 -10.8515625 13.953125 C-10.73941406 12.61507812 -10.73941406 12.61507812 -10.625 11.25 C-10.55539062 10.36828125 -10.48578125 9.4865625 -10.4140625 8.578125 C-9.99177193 5.9487686 -9.42949231 4.23662062 -8 2 C-4.77626323 -0.14915785 -3.73296326 -0.38286803 0 0 Z " fill="#E8BB9D" transform="translate(439,101)"/>
<path d="M0 0 C4.29 0 8.58 0 13 0 C13.33 1.32 13.66 2.64 14 4 C14.66 2.68 15.32 1.36 16 0 C17.32 0 18.64 0 20 0 C19.43174347 5.54050113 17.37113483 10.03715966 15 15 C14 12 14 12 14 9 C13.01 9.495 13.01 9.495 12 10 C12 7.03 12 4.06 12 1 C11.01 1 10.02 1 9 1 C8.67 3.64 8.34 6.28 8 9 C7.67 9 7.34 9 7 9 C7 6.36 7 3.72 7 1 C4.69 1 2.38 1 0 1 C0 0.67 0 0.34 0 0 Z " fill="#E6B192" transform="translate(540,101)"/>
<path d="M0 0 C0.33 0 0.66 0 1 0 C1.30221599 8.46204771 0.14920797 16.63745983 -1 25 C-7.875 24.125 -7.875 24.125 -9 23 C-9.04080783 21.00041636 -9.04254356 18.99954746 -9 17 C-8.731875 17.639375 -8.46375 18.27875 -8.1875 18.9375 C-7.11332248 21.33131686 -7.11332248 21.33131686 -4 22 C-3.93941406 21.21753906 -3.87882812 20.43507813 -3.81640625 19.62890625 C-3.73261719 18.61699219 -3.64882813 17.60507813 -3.5625 16.5625 C-3.48128906 15.55316406 -3.40007812 14.54382813 -3.31640625 13.50390625 C-3 11 -3 11 -2 10 C-1.79300437 8.50503158 -1.63320741 7.0033408 -1.5 5.5 C-1.11111111 1.11111111 -1.11111111 1.11111111 0 0 Z " fill="#D87946" transform="translate(361,93)"/>
<path d="M0 0 C1.32 0.33 2.64 0.66 4 1 C4 2.98 4 4.96 4 7 C2.02 7 0.04 7 -2 7 C-1.67 8.65 -1.34 10.3 -1 12 C-0.01 11.67 0.98 11.34 2 11 C2 12.32 2 13.64 2 15 C0.1875 15.625 0.1875 15.625 -2 16 C-2.99 15.34 -3.98 14.68 -5 14 C-5.29296875 11.6171875 -5.29296875 11.6171875 -5.1875 8.875 C-5.16042969 7.96492188 -5.13335938 7.05484375 -5.10546875 6.1171875 C-5.07066406 5.41851562 -5.03585937 4.71984375 -5 4 C-4.01 3.67 -3.02 3.34 -2 3 C-2 3.66 -2 4.32 -2 5 C-0.68 5 0.64 5 2 5 C2 3.68 2 2.36 2 1 C1.34 0.67 0.68 0.34 0 0 Z " fill="#D98250" transform="translate(524,103)"/>
<path d="M0 0 C2.41385269 0.56796534 3.79339233 0.24944532 6.125 -0.5 C6.875 1.0625 6.875 1.0625 7.125 3.5 C5.99415563 6.00286409 4.60360484 8.17007722 3.125 10.5 C2.135 10.17 1.145 9.84 0.125 9.5 C0.455 7.85 0.785 6.2 1.125 4.5 C-0.525 4.17 -2.175 3.84 -3.875 3.5 C-3.875 2.51 -3.875 1.52 -3.875 0.5 C-1.875 -0.5 -1.875 -0.5 0 0 Z " fill="#E2AC8B" transform="translate(559.875,113.5)"/>
<path d="M0 0 C1.32 0 2.64 0 4 0 C4.33 5.61 4.66 11.22 5 17 C3.68 17 2.36 17 1 17 C0.67 11.39 0.34 5.78 0 0 Z " fill="#D9885A" transform="translate(441,101)"/>
<path d="M0 0 C1.98 0 3.96 0 6 0 C6.16682272 4.92127034 6.24828052 8.50343896 4 13 C2.68 12.67 1.36 12.34 0 12 C-0.19477739 10.37585622 -0.38059458 8.75063577 -0.5625 7.125 C-0.66691406 6.22007813 -0.77132813 5.31515625 -0.87890625 4.3828125 C-1 2 -1 2 0 0 Z M3 4 C2.67 6.64 2.34 9.28 2 12 C4.1519437 8.77208445 4.20086443 7.71599191 4 4 C3.67 4 3.34 4 3 4 Z " fill="#E0976B" transform="translate(353,102)"/>
<path d="M0 0 C0.33 0 0.66 0 1 0 C1 2.64 1 5.28 1 8 C-2.46941546 7.54177532 -5.67395049 7.10868317 -9 6 C-11.61697371 5.87728477 -14.19567761 5.81487246 -16.8125 5.8125 C-17.86147461 5.79413086 -17.86147461 5.79413086 -18.93164062 5.77539062 C-23.34561655 5.76300341 -26.90131584 6.37210817 -31 8 C-31 7.34 -31 6.68 -31 6 C-26.98179234 2.81341366 -23.26282264 2.52664922 -18.3125 2.625 C-17.60931641 2.63080078 -16.90613281 2.63660156 -16.18164062 2.64257812 C-10.45277181 2.78435581 -5.33165888 3.84683007 0 6 C0 4.02 0 2.04 0 0 Z " fill="#77BD96" transform="translate(291,45)"/>
<path d="M0 0 C1.32 0.33 2.64 0.66 4 1 C3.01 1.495 3.01 1.495 2 2 C1.53248212 4.35599235 1.53248212 4.35599235 1.375 7.0625 C1.30023437 7.98160156 1.22546875 8.90070313 1.1484375 9.84765625 C1.09945312 10.55792969 1.05046875 11.26820312 1 12 C1.66 12 2.32 12 3 12 C3 11.01 3 10.02 3 9 C3.66 9 4.32 9 5 9 C5.125 12.375 5.125 12.375 5 16 C4.34 16.66 3.68 17.32 3 18 C2.67 16.68 2.34 15.36 2 14 C0.68 14 -0.64 14 -2 14 C-2 10.04 -2 6.08 -2 2 C-1.34 2 -0.68 2 0 2 C0 1.34 0 0.68 0 0 Z " fill="#DA7842" transform="translate(540,103)"/>
<path d="M0 0 C0.33 0 0.66 0 1 0 C1.08333357 4.8333472 0.95261487 9.23692563 0 14 C0.66 14 1.32 14 2 14 C2.33 11.69 2.66 9.38 3 7 C3.33 7 3.66 7 4 7 C4.125 12.75 4.125 12.75 3 15 C0.69 14.67 -1.62 14.34 -4 14 C-4 13.34 -4 12.68 -4 12 C-5.32 11.67 -6.64 11.34 -8 11 C-8 9.68 -8 8.36 -8 7 C-5.69 7 -3.38 7 -1 7 C-0.67 4.69 -0.34 2.38 0 0 Z M-7 8 C-6.67 8.99 -6.34 9.98 -6 11 C-5.67 10.01 -5.34 9.02 -5 8 C-5.66 8 -6.32 8 -7 8 Z M-2 11 C-1 13 -1 13 -1 13 Z " fill="#E4B190" transform="translate(420,103)"/>
<path d="M0 0 C0.99 0 1.98 0 3 0 C2.54762239 1.91808109 2.08785537 3.83442033 1.625 5.75 C1.36976563 6.81734375 1.11453125 7.8846875 0.8515625 8.984375 C0.12466459 11.55852722 -0.7026224 13.67600186 -2 16 C-2.99 15.67 -3.98 15.34 -5 15 C-5.33 10.71 -5.66 6.42 -6 2 C-5.34 1.67 -4.68 1.34 -4 1 C-4 3.97 -4 6.94 -4 10 C-3.34 10 -2.68 10 -2 10 C-2 8.02 -2 6.04 -2 4 C-1.34 4 -0.68 4 0 4 C0 2.68 0 1.36 0 0 Z " fill="#D98E64" transform="translate(453,102)"/>
<path d="M0 0 C0.33 0 0.66 0 1 0 C1 2.97 1 5.94 1 9 C2.65 9 4.3 9 6 9 C5.01 9.66 4.02 10.32 3 11 C2.21011855 12.95385067 2.21011855 12.95385067 1.8125 15.125 C1.4103125 17.043125 1.4103125 17.043125 1 19 C2.32 19.33 3.64 19.66 5 20 C3.35 20 1.7 20 0 20 C-0.33 20.66 -0.66 21.32 -1 22 C-1.66 22 -2.32 22 -3 22 C-2.01 14.74 -1.02 7.48 0 0 Z " fill="#E0946A" transform="translate(500,96)"/>
<path d="M0 0 C2.5 -0.3125 2.5 -0.3125 5 0 C7 2 7 2 7.1875 5.8125 C7.11266813 8.97270751 6.76920251 11.92318996 6 15 C5.67 13.68 5.34 12.36 5 11 C4.01 11 3.02 11 2 11 C1.34 11.66 0.68 12.32 0 13 C0.33 9.7 0.66 6.4 1 3 C1.99 3.33 2.98 3.66 4 4 C4 5.32 4 6.64 4 8 C4.66 8 5.32 8 6 8 C5.67 6.35 5.34 4.7 5 3 C2.69 3 0.38 3 -2 3 C-1.34 2.01 -0.68 1.02 0 0 Z " fill="#E4AA85" transform="translate(485,101)"/>
<path d="M0 0 C0 1.32 0 2.64 0 4 C-0.66 4.66 -1.32 5.32 -2 6 C-2 5.01 -2 4.02 -2 3 C-4.75105422 2.89187997 -7.49785087 2.81265055 -10.25 2.75 C-11.02730469 2.71648438 -11.80460938 2.68296875 -12.60546875 2.6484375 C-17.45717688 2.53479091 -17.45717688 2.53479091 -21.546875 5.015625 C-22.02640625 5.67046875 -22.5059375 6.3253125 -23 7 C-23 4 -23 4 -21 1 C-14.08796504 -0.43457329 -7.03067638 -0.09645745 0 0 Z " fill="#E4BAA3" transform="translate(232,7)"/>
<path d="M0 0 C1.32 0 2.64 0 4 0 C3.67 5.28 3.34 10.56 3 16 C1.68 16 0.36 16 -1 16 C-0.67 10.72 -0.34 5.44 0 0 Z " fill="#D57944" transform="translate(514,102)"/>
<path d="M0 0 C0.33 0 0.66 0 1 0 C0.67 4.62 0.34 9.24 0 14 C-2.31 14 -4.62 14 -7 14 C-7.05399736 12.54207116 -7.09279177 11.08357288 -7.125 9.625 C-7.15980469 8.40683594 -7.15980469 8.40683594 -7.1953125 7.1640625 C-7 5 -7 5 -5 3 C-5 5.97 -5 8.94 -5 12 C-4.34 11.67 -3.68 11.34 -3 11 C-2.34767859 8.6833206 -2.34767859 8.6833206 -1.9375 6 C-1.09433962 1.09433962 -1.09433962 1.09433962 0 0 Z " fill="#D8753E" transform="translate(463,103)"/>
<path d="M0 0 C0.99 0 1.98 0 3 0 C2.80664062 0.59425781 2.61328125 1.18851562 2.4140625 1.80078125 C0.42266784 8.13972563 -0.94051231 14.44364086 -2 21 C-2.33 21 -2.66 21 -3 21 C-3 19.02 -3 17.04 -3 15 C-3.66 15 -4.32 15 -5 15 C-4.37321829 11.33827525 -3.35548154 8.1181005 -1.9375 4.6875 C-1.39416016 3.36298828 -1.39416016 3.36298828 -0.83984375 2.01171875 C-0.56269531 1.34785156 -0.28554688 0.68398437 0 0 Z " fill="#DE996F" transform="translate(345,95)"/>
<path d="M0 0 C0.66 0.33 1.32 0.66 2 1 C2.4140625 3.50390625 2.4140625 3.50390625 2.625 6.5625 C2.69976562 7.57441406 2.77453125 8.58632812 2.8515625 9.62890625 C2.90054687 10.41136719 2.94953125 11.19382812 3 12 C4.65 12.33 6.3 12.66 8 13 C6.1875 14.0625 6.1875 14.0625 4 15 C3.01 14.67 2.02 14.34 1 14 C1 13.34 1 12.68 1 12 C0.34 12 -0.32 12 -1 12 C-1.33 12.66 -1.66 13.32 -2 14 C-2.21192221 8.80790596 -1.5912689 4.873261 0 0 Z " fill="#E6B494" transform="translate(481,104)"/>
<path d="M0 0 C2.97 0 5.94 0 9 0 C9 0.66 9 1.32 9 2 C9.66 2 10.32 2 11 2 C13.42857143 9.42857143 13.42857143 9.42857143 12 13 C11.34 11.68 10.68 10.36 10 9 C9.87625 10.134375 9.7525 11.26875 9.625 12.4375 C9.41875 13.613125 9.2125 14.78875 9 16 C8.34 16.33 7.68 16.66 7 17 C7.33 11.72 7.66 6.44 8 1 C5.36 1 2.72 1 0 1 C0 0.67 0 0.34 0 0 Z " fill="#E8C2AA" transform="translate(374,101)"/>
<path d="M0 0 C0.66 0 1.32 0 2 0 C2 0.66 2 1.32 2 2 C2.99 2.33 3.98 2.66 5 3 C5.33 4.98 5.66 6.96 6 9 C6.99 9.33 7.98 9.66 9 10 C9 11.32 9 12.64 9 14 C9.99 14.33 10.98 14.66 12 15 C12.33 17.31 12.66 19.62 13 22 C9.45917965 17.87445703 6.86417365 13.48446432 4.25 8.75 C3.63318359 7.65171875 3.63318359 7.65171875 3.00390625 6.53125 C0 1.14218231 0 1.14218231 0 0 Z " fill="#60B183" transform="translate(56,88)"/>
<path d="M0 0 C0.99 0.66 1.98 1.32 3 2 C3.5 5.4375 3.5 5.4375 3 9 C0.6875 11 0.6875 11 -2 12 C-2.99 11.67 -3.98 11.34 -5 11 C-5 9.68 -5 8.36 -5 7 C-3.68 7 -2.36 7 -1 7 C-0.67 4.69 -0.34 2.38 0 0 Z " fill="#E09E79" transform="translate(388,107)"/>
<path d="M0 0 C2.66666667 0.66666667 5.33333333 1.33333333 8 2 C7.67 3.65 7.34 5.3 7 7 C5.35 7 3.7 7 2 7 C2.33 5.35 2.66 3.7 3 2 C2.01 2 1.02 2 0 2 C-0.33 3.98 -0.66 5.96 -1 8 C-1.93065133 5.39417629 -2.14917407 4.35801776 -1.0625 1.75 C-0.711875 1.1725 -0.36125 0.595 0 0 Z " fill="#E4B394" transform="translate(345,93)"/>
<path d="M0 0 C0.33 1.32 0.66 2.64 1 4 C0.34 4 -0.32 4 -1 4 C-1.103125 4.680625 -1.20625 5.36125 -1.3125 6.0625 C-2.1537532 9.65694548 -3.29769664 12.72148982 -5 16 C-7.1875 16.9375 -7.1875 16.9375 -9 17 C-7.51481201 12.95698825 -5.57122002 9.38853744 -3.375 5.6875 C-2.74335938 4.61886719 -2.11171875 3.55023438 -1.4609375 2.44921875 C-0.97882813 1.64097656 -0.49671875 0.83273438 0 0 Z " fill="#E2A582" transform="translate(181,58)"/>
<path d="M0 0 C2 2 2 2 2.01171875 3.875 C1.90472656 4.57625 1.79773438 5.2775 1.6875 6 C1.58824219 6.70125 1.48898437 7.4025 1.38671875 8.125 C1 10 1 10 0 12 C0.66 12 1.32 12 2 12 C2.185625 11.0409375 2.185625 11.0409375 2.375 10.0625 C2.58125 9.381875 2.7875 8.70125 3 8 C3.66 7.67 4.32 7.34 5 7 C3.25 12.75 3.25 12.75 1 15 C0.01 15 -0.98 15 -2 15 C-1.54177532 11.53058454 -1.10868317 8.32604951 0 5 C0.03874921 3.33378384 0.0450286 1.66605828 0 0 Z " fill="#E5B497" transform="translate(549,110)"/>
<path d="M0 0 C0.66 0 1.32 0 2 0 C1.34 4.95 0.68 9.9 0 15 C-0.66 15 -1.32 15 -2 15 C-2.05406122 13.06280622 -2.09282025 11.12518079 -2.125 9.1875 C-2.14820313 8.10855469 -2.17140625 7.02960938 -2.1953125 5.91796875 C-2 3 -2 3 0 0 Z " fill="#D38051" transform="translate(375,103)"/>
<path d="M0 0 C0.33 0 0.66 0 1 0 C1.49230769 7.38461538 1.49230769 7.38461538 -1 10.5 C-1.66 10.995 -2.32 11.49 -3 12 C-3 11.01 -3 10.02 -3 9 C-4.98 9.99 -4.98 9.99 -7 11 C-7 9.02 -7 7.04 -7 5 C-4.69 5 -2.38 5 0 5 C0 3.35 0 1.7 0 0 Z M-6 6 C-5.67 6.99 -5.34 7.98 -5 9 C-4.67 8.01 -4.34 7.02 -4 6 C-4.66 6 -5.32 6 -6 6 Z " fill="#EABA9C" transform="translate(529,105)"/>
<path d="M0 0 C1.32 0 2.64 0 4 0 C3.03644647 10.55808656 3.03644647 10.55808656 2 15 C1.01 15 0.02 15 -1 15 C-1 14.01 -1 13.02 -1 12 C-0.34 12 0.32 12 1 12 C1 8.7 1 5.4 1 2 C0.34 1.67 -0.32 1.34 -1 1 C-0.67 0.67 -0.34 0.34 0 0 Z " fill="#D67741" transform="translate(426,102)"/>
<path d="M0 0 C0.66 0.33 1.32 0.66 2 1 C1.38125 1.0825 0.7625 1.165 0.125 1.25 C-2.1346633 1.77905978 -2.1346633 1.77905978 -2.9375 3.75 C-3.288125 4.4925 -3.63875 5.235 -4 6 C-6.4375 8.75 -6.4375 8.75 -9 11 C-9.99 11 -10.98 11 -12 11 C-10.63981009 7.88036045 -9.16739866 5.99165178 -6.5625 3.8125 C-5.96566406 3.30332031 -5.36882812 2.79414062 -4.75390625 2.26953125 C-3 1 -3 1 0 0 Z " fill="#59B180" transform="translate(259,44)"/>
<path d="M0 0 C2.97 0 5.94 0 9 0 C10 3 10 3 8.5625 6.1875 C7.7890625 7.5796875 7.7890625 7.5796875 7 9 C6.06576355 5.98968256 5.95550089 5.13349732 7 2 C5.02 2 3.04 2 1 2 C1 2.99 1 3.98 1 5 C0.01 5.33 -0.98 5.66 -2 6 C-1.34 4.02 -0.68 2.04 0 0 Z " fill="#84C3A0" transform="translate(451,42)"/>
<path d="M0 0 C0.99 0 1.98 0 3 0 C3.02725341 1.7290774 3.04650987 3.45828176 3.0625 5.1875 C3.07410156 6.15042969 3.08570313 7.11335938 3.09765625 8.10546875 C3.00486622 10.85576513 2.62111685 13.32479591 2 16 C1.34 16 0.68 16 0 16 C-0.08333357 11.1666528 0.04738513 6.76307437 1 2 C0.34 1.67 -0.32 1.34 -1 1 C-0.67 0.67 -0.34 0.34 0 0 Z " fill="#D37641" transform="translate(379,102)"/>
<path d="M0 0 C2.97 0 5.94 0 9 0 C8.01 0.66 7.02 1.32 6 2 C5.95833998 4.3329614 5.95833998 6.6670386 6 9 C5.34 9.66 4.68 10.32 4 11 C3.60235737 12.98821313 3.26224651 14.98944339 3 17 C2.67 17 2.34 17 2 17 C2.33 11.72 2.66 6.44 3 1 C2.01 0.67 1.02 0.34 0 0 Z " fill="#EABA9B" transform="translate(509,101)"/>
<path d="M0 0 C0.33 0.66 0.66 1.32 1 2 C0.01 3.485 0.01 3.485 -1 5 C-2.32 4.67 -3.64 4.34 -5 4 C-4.67 4.66 -4.34 5.32 -4 6 C-0.97065509 6.65772428 -0.97065509 6.65772428 2 7 C1.34 7.66 0.68 8.32 0 9 C-3.125 8.625 -3.125 8.625 -6 8 C-6.33 6.35 -6.66 4.7 -7 3 C-4.69 2.01 -2.38 1.02 0 0 Z M-2 2 C-1 4 -1 4 -1 4 Z " fill="#E7B598" transform="translate(542,116)"/>
<path d="M0 0 C1.65 0 3.3 0 5 0 C4.34 3.63 3.68 7.26 3 11 C2.01 11.33 1.02 11.66 0 12 C-0.19401633 10.18818595 -0.38004375 8.37551468 -0.5625 6.5625 C-0.66691406 5.55316406 -0.77132813 4.54382813 -0.87890625 3.50390625 C-0.91886719 2.67761719 -0.95882813 1.85132812 -1 1 C-0.67 0.67 -0.34 0.34 0 0 Z M2 3 C0.64560332 5.70879335 0.93498549 8.00933268 1 11 C1.33 11 1.66 11 2 11 C2.33 8.36 2.66 5.72 3 3 C2.67 3 2.34 3 2 3 Z " fill="#E3A078" transform="translate(458,103)"/>
<path d="M0 0 C0.66 0 1.32 0 2 0 C2 0.99 2 1.98 2 3 C2.99 3 3.98 3 5 3 C6.28317892 6.84953676 6.06643637 9.94738135 6 14 C3.23776722 11.23776722 3.42143709 8.79293383 3 5 C2.34 5 1.68 5 1 5 C0.67 5.66 0.34 6.32 0 7 C0 4.69 0 2.38 0 0 Z " fill="#DA733A" transform="translate(400,102)"/>
<path d="M0 0 C0.99 0 1.98 0 3 0 C3.19392201 5.52677733 2.7479503 9.75614911 1 15 C0.67 15 0.34 15 0 15 C0 10.05 0 5.1 0 0 Z " fill="#D8733E" transform="translate(509,102)"/>
<path d="M0 0 C0.66 0.33 1.32 0.66 2 1 C1.34 5.29 0.68 9.58 0 14 C-0.99 14 -1.98 14 -3 14 C-2.48594831 9.03083364 -1.76615118 4.70973649 0 0 Z " fill="#D67742" transform="translate(532,103)"/>
<path d="M0 0 C2.80360492 2.55981319 3.86709395 4.46902452 4.203125 8.33984375 C4.21859375 9.19707031 4.2340625 10.05429687 4.25 10.9375 C4.27578125 11.79214844 4.3015625 12.64679688 4.328125 13.52734375 C4 16 4 16 1 20 C1.33 14.72 1.66 9.44 2 4 C1.34 4 0.68 4 0 4 C0 2.68 0 1.36 0 0 Z " fill="#71BB91" transform="translate(388,52)"/>
<path d="M0 0 C0.66 0 1.32 0 2 0 C2 0.66 2 1.32 2 2 C2.99 2.33 3.98 2.66 5 3 C5.33 4.98 5.66 6.96 6 9 C6.99 9.33 7.98 9.66 9 10 C9.33 12.31 9.66 14.62 10 17 C6.95591696 13.43312878 4.78917799 9.90489084 2.75 5.6875 C1.96882813 4.08455078 1.96882813 4.08455078 1.171875 2.44921875 C0.78515625 1.64097656 0.3984375 0.83273438 0 0 Z " fill="#69B88A" transform="translate(23,32)"/>
<path d="M0 0 C0.33 0.66 0.66 1.32 1 2 C-0.00327431 4.4344156 -1.0600367 6.72223885 -2.25 9.0625 C-2.56324219 9.71283203 -2.87648437 10.36316406 -3.19921875 11.03320312 C-5.62821155 15.87607052 -5.62821155 15.87607052 -9 17 C-7.51481201 12.95698825 -5.57122002 9.38853744 -3.375 5.6875 C-2.74335938 4.61886719 -2.11171875 3.55023438 -1.4609375 2.44921875 C-0.97882813 1.64097656 -0.49671875 0.83273438 0 0 Z " fill="#E2A581" transform="translate(197,31)"/>
<path d="M0 0 C0.33 0.66 0.66 1.32 1 2 C0.0625 4.625 0.0625 4.625 -1 7 C-1.66 7 -2.32 7 -3 7 C-3 7.66 -3 8.32 -3 9 C-5.375 9.1875 -5.375 9.1875 -8 9 C-10 6 -10 6 -9.625 3.8125 C-9.41875 3.214375 -9.2125 2.61625 -9 2 C-8.34 3.65 -7.68 5.3 -7 7 C-3.17053157 5.54744301 -1.87949705 3.57104439 0 0 Z " fill="#DEA37E" transform="translate(167,82)"/>
<path d="M0 0 C0.33 0 0.66 0 1 0 C1.33 4.62 1.66 9.24 2 14 C2.33 14 2.66 14 3 14 C3 15.98 3 17.96 3 20 C2.01 20.33 1.02 20.66 0 21 C0 14.07 0 7.14 0 0 Z " fill="#DD743A" transform="translate(332,96)"/>
<path d="M0 0 C0.66 0 1.32 0 2 0 C2 0.66 2 1.32 2 2 C2.66 2 3.32 2 4 2 C4 2.99 4 3.98 4 5 C5.32 5.33 6.64 5.66 8 6 C8.33 4.68 8.66 3.36 9 2 C9.66 2 10.32 2 11 2 C9.125 6.75 9.125 6.75 8 9 C6.140625 8.75390625 6.140625 8.75390625 4 8 C2.734375 6.15234375 2.734375 6.15234375 1.75 3.9375 C1.41484375 3.20402344 1.0796875 2.47054687 0.734375 1.71484375 C0.49203125 1.14894531 0.2496875 0.58304687 0 0 Z " fill="#DCA37F" transform="translate(156,115)"/>
<path d="M0 0 C0.83583327 2.37607949 1.1842383 3.54449627 0.22265625 5.921875 C-0.8515625 7.61458333 -1.92578125 9.30729167 -3 11 C-3.66 11 -4.32 11 -5 11 C-5.33 12.65 -5.66 14.3 -6 16 C-6.66 16 -7.32 16 -8 16 C-6.42986223 10.03347646 -3.24970218 5.17090975 0 0 Z " fill="#E2A685" transform="translate(153,31)"/>
<path d="M0 0 C0.66 0 1.32 0 2 0 C1.88658363 2.31309705 1.75896193 4.62550185 1.625 6.9375 C1.52058594 8.86916016 1.52058594 8.86916016 1.4140625 10.83984375 C1.27742188 11.88269531 1.14078125 12.92554687 1 14 C0.01 14.495 0.01 14.495 -1 15 C-1.02703381 13.06257659 -1.04641125 11.12504521 -1.0625 9.1875 C-1.07410156 8.10855469 -1.08570313 7.02960938 -1.09765625 5.91796875 C-1 3 -1 3 0 0 Z " fill="#D77742" transform="translate(348,102)"/>
<path d="M0 0 C0.66 0 1.32 0 2 0 C4.46751239 3.70126859 4.30721156 5.62223532 4 10 C3.1875 12.375 3.1875 12.375 2 14 C1.01 14.33 0.02 14.66 -1 15 C-0.649375 14.38125 -0.29875 13.7625 0.0625 13.125 C1.41103435 8.62988551 0.65959866 4.59045013 0 0 Z " fill="#68B889" transform="translate(380,56)"/>
<path d="M0 0 C6.93 0 13.86 0 21 0 C20.67 1.98 20.34 3.96 20 6 C19.67 4.68 19.34 3.36 19 2 C12.73 1.67 6.46 1.34 0 1 C0 0.67 0 0.34 0 0 Z " fill="#DA8756" transform="translate(167,9)"/>
<path d="M0 0 C1.98 0 3.96 0 6 0 C6.33 0.99 6.66 1.98 7 3 C6.01 3 5.02 3 4 3 C4 4.32 4 5.64 4 7 C3.01 7 2.02 7 1 7 C1 5.68 1 4.36 1 3 C0.34 3 -0.32 3 -1 3 C-0.67 2.01 -0.34 1.02 0 0 Z " fill="#E5AA84" transform="translate(412,101)"/>
<path d="M0 0 C0.33 0 0.66 0 1 0 C1.25287193 6.06892629 0.69832609 11.16200408 -1 17 C-1.33 17 -1.66 17 -2 17 C-2.38133299 15.0085944 -2.71325582 13.00720923 -3 11 C-2.67 10.67 -2.34 10.34 -2 10 C-1.79300437 8.50503158 -1.63320741 7.0033408 -1.5 5.5 C-1.11111111 1.11111111 -1.11111111 1.11111111 0 0 Z " fill="#D9733C" transform="translate(361,93)"/>
<path d="M0 0 C0.99 0 1.98 0 3 0 C3.19294408 4.82360189 2.75747614 8.49646738 1 13 C0.67 13 0.34 13 0 13 C0 8.71 0 4.42 0 0 Z " fill="#D77F4D" transform="translate(469,92)"/>
<path d="M0 0 C3 1 3 1 4.75 4.3125 C6 8 6 8 5 12 C3.68 9.36 2.36 6.72 1 4 C0.01 4.66 -0.98 5.32 -2 6 C-2 4.35 -2 2.7 -2 1 C-1.34 0.67 -0.68 0.34 0 0 Z " fill="#79BE96" transform="translate(424,54)"/>
<path d="M0 0 C0.66 0 1.32 0 2 0 C0.35821735 4.77609498 -2.26546702 8.79382904 -5 13 C-5.66 11.68 -6.32 10.36 -7 9 C-6.01 9 -5.02 9 -4 9 C-4.33 7.68 -4.66 6.36 -5 5 C-4.01 5 -3.02 5 -2 5 C-2 4.01 -2 3.02 -2 2 C-1.34 2 -0.68 2 0 2 C0 1.34 0 0.68 0 0 Z " fill="#E19771" transform="translate(216,33)"/>
<path d="M0 0 C0.99 0 1.98 0 3 0 C3 2.64 3 5.28 3 8 C3.66 8.33 4.32 8.66 5 9 C4.01 9.66 3.02 10.32 2 11 C2 10.01 2 9.02 2 8 C1.01 8 0.02 8 -1 8 C-0.67 5.36 -0.34 2.72 0 0 Z M1 1 C2 5 2 5 2 5 Z " fill="#E0A37A" transform="translate(403,97)"/>
<path d="M0 0 C-6.52940894 2.95671348 -11.87399867 3.35368021 -19 3 C-19 2.67 -19 2.34 -19 2 C-18.33613281 1.86722656 -17.67226563 1.73445313 -16.98828125 1.59765625 C-15.66376953 1.33275391 -15.66376953 1.33275391 -14.3125 1.0625 C-11.65625 0.53125 -11.65625 0.53125 -9 0 C-7.72189453 -0.31130859 -7.72189453 -0.31130859 -6.41796875 -0.62890625 C-3.9153002 -1.01299916 -2.37958482 -0.79319494 0 0 Z " fill="#7BBC96" transform="translate(518,80)"/>
<path d="M0 0 C0.33 0 0.66 0 1 0 C1 2.97 1 5.94 1 9 C1.66 9 2.32 9 3 9 C2.67 10.98 2.34 12.96 2 15 C1.34 14.67 0.68 14.34 0 14 C-0.44921875 11.09375 -0.44921875 11.09375 -0.6875 7.5 C-0.77386719 6.3140625 -0.86023438 5.128125 -0.94921875 3.90625 C-0.96597656 2.9471875 -0.98273438 1.988125 -1 1 C-0.67 0.67 -0.34 0.34 0 0 Z " fill="#D37B49" transform="translate(448,103)"/>
<path d="M0 0 C1.66666667 0 3.33333333 0 5 0 C5 1.98 5 3.96 5 6 C3.02 6 1.04 6 -1 6 C-0.67 4.02 -0.34 2.04 0 0 Z " fill="#DC9569" transform="translate(435,104)"/>
<path d="M0 0 C0.33 0 0.66 0 1 0 C1 3.3 1 6.6 1 10 C0.01 10.33 -0.98 10.66 -2 11 C-2 9.02 -2 7.04 -2 5 C-4.31 5 -6.62 5 -9 5 C-9 4.67 -9 4.34 -9 4 C-6.36 4 -3.72 4 -1 4 C-0.67 2.68 -0.34 1.36 0 0 Z " fill="#E8BEA1" transform="translate(467,97)"/>
<path d="M0 0 C1.98 0 3.96 0 6 0 C4.6302836 3.99500618 2.74277578 6.80009492 0 10 C0 6.7 0 3.4 0 0 Z " fill="#DD9165" transform="translate(175,94)"/>
<path d="M0 0 C1.32 0 2.64 0 4 0 C3.8125 2.375 3.8125 2.375 3 5 C0.625 6.4375 0.625 6.4375 -2 7 C-2.99 6.34 -3.98 5.68 -5 5 C-3.02 5 -1.04 5 1 5 C1 4.34 1 3.68 1 3 C0.01 2.67 -0.98 2.34 -2 2 C-1.34 2 -0.68 2 0 2 C0 1.34 0 0.68 0 0 Z " fill="#E1A37D" transform="translate(436,112)"/>
<path d="M0 0 C0.99 0 1.98 0 3 0 C3.1953125 6.0546875 3.1953125 6.0546875 3 8 C2.34 8.66 1.68 9.32 1 10 C-0.60725635 6.78548731 -0.05748185 3.56387464 0 0 Z " fill="#D37E4F" transform="translate(549,102)"/>
<path d="M0 0 C0.66 0.33 1.32 0.66 2 1 C1.02526874 2.66926454 0.04510211 4.33535642 -0.9375 6 C-1.75541016 7.3921875 -1.75541016 7.3921875 -2.58984375 8.8125 C-3.05519531 9.534375 -3.52054688 10.25625 -4 11 C-4.33 11 -4.66 11 -5 11 C-4.67 8.36 -4.34 5.72 -4 3 C-3.01 3 -2.02 3 -1 3 C-0.67 2.01 -0.34 1.02 0 0 Z " fill="#E2A27D" transform="translate(223,22)"/>
<path d="M0 0 C1.32 0.66 2.64 1.32 4 2 C3.67 2.99 3.34 3.98 3 5 C0.69 5 -1.62 5 -4 5 C-4.33 4.01 -4.66 3.02 -5 2 C-3.68 2 -2.36 2 -1 2 C-0.67 1.34 -0.34 0.68 0 0 Z " fill="#DC8B5A" transform="translate(542,118)"/>
<path d="M0 0 C0.33 0 0.66 0 1 0 C0.67 4.29 0.34 8.58 0 13 C-0.66 13 -1.32 13 -2 13 C-2.05416188 11.39620659 -2.09286638 9.79188594 -2.125 8.1875 C-2.14820313 7.29417969 -2.17140625 6.40085937 -2.1953125 5.48046875 C-2 3 -2 3 0 0 Z " fill="#D67746" transform="translate(479,105)"/>
<path d="M0 0 C0.99 0 1.98 0 3 0 C2.55123384 1.64846769 2.09069512 3.29373455 1.625 4.9375 C1.36976563 5.85402344 1.11453125 6.77054687 0.8515625 7.71484375 C0 10 0 10 -2 11 C-1.125 3.375 -1.125 3.375 0 0 Z " fill="#D77844" transform="translate(345,95)"/>
<path d="M0 0 C0.75 1.5625 0.75 1.5625 1 4 C-0.02332869 6.54719859 -1.27272296 8.86333587 -3 11 C-3.99 11.33 -4.98 11.66 -6 12 C-4.43358249 7.69235185 -2.31663844 3.93828536 0 0 Z " fill="#E4A687" transform="translate(136,61)"/>
<path d="M0 0 C0.6875 1.6875 0.6875 1.6875 1 4 C-0.3125 6.75 -0.3125 6.75 -2 9 C-2.66 9 -3.32 9 -4 9 C-4 9.99 -4 10.98 -4 12 C-4.66 12 -5.32 12 -6 12 C-4.43358249 7.69235185 -2.31663844 3.93828536 0 0 Z " fill="#E6AE87" transform="translate(207,14)"/>
<path d="M0 0 C0.99 0.33 1.98 0.66 3 1 C3 2.65 3 4.3 3 6 C3.99 6 4.98 6 6 6 C6 6.66 6 7.32 6 8 C4.02 8 2.04 8 0 8 C0 5.36 0 2.72 0 0 Z " fill="#D67A46" transform="translate(431,109)"/>
<path d="M0 0 C2.475 0.495 2.475 0.495 5 1 C5.33 3.64 5.66 6.28 6 9 C3.03134491 6.45543849 1.6380249 3.51005335 0 0 Z " fill="#E0976C" transform="translate(110,111)"/>
<path d="M0 0 C0.99 0 1.98 0 3 0 C3.75 1.6875 3.75 1.6875 4 4 C2.0625 6.75 2.0625 6.75 0 9 C-0.87890625 2.84765625 -0.87890625 2.84765625 -1 1 C-0.67 0.67 -0.34 0.34 0 0 Z " fill="#DF8C61" transform="translate(204,47)"/>
<path d="M0 0 C0.66 0 1.32 0 2 0 C2.33 3.3 2.66 6.6 3 10 C2.01 10.495 2.01 10.495 1 11 C-1.125 3.375 -1.125 3.375 0 0 Z " fill="#DDAA87" transform="translate(446,107)"/>
<path d="M0 0 C1.98 0 3.96 0 6 0 C5.67 1.65 5.34 3.3 5 5 C3.68 5.33 2.36 5.66 1 6 C1 5.01 1 4.02 1 3 C1.99 3 2.98 3 4 3 C4 2.34 4 1.68 4 1 C2.35 1.33 0.7 1.66 -1 2 C-0.67 1.34 -0.34 0.68 0 0 Z " fill="#ECBE9C" transform="translate(386,101)"/>
<path d="M0 0 C1.65 0 3.3 0 5 0 C4.67 3.63 4.34 7.26 4 11 C3.67 11 3.34 11 3 11 C3 8.03 3 5.06 3 2 C2.01 2 1.02 2 0 2 C0 1.34 0 0.68 0 0 Z " fill="#EAC7B0" transform="translate(479,91)"/>
<path d="M0 0 C1.98 0.495 1.98 0.495 4 1 C4 2.98 4 4.96 4 7 C2.35 7 0.7 7 -1 7 C-1 6.34 -1 5.68 -1 5 C-0.01 5 0.98 5 2 5 C2 3.68 2 2.36 2 1 C1.34 0.67 0.68 0.34 0 0 Z " fill="#D57743" transform="translate(367,103)"/>
<path d="M0 0 C0.99 0 1.98 0 3 0 C3.99 3.3 4.98 6.6 6 10 C3.69919683 7.69919683 1.76974487 5.69675408 0 3 C0 2.01 0 1.02 0 0 Z " fill="#DE9E78" transform="translate(139,87)"/>
<path d="M0 0 C0.8125 1.6875 0.8125 1.6875 1 4 C-1.4375 6.75 -1.4375 6.75 -4 9 C-4 5.00095031 -2.27413033 3.19799578 0 0 Z " fill="#69B78B" transform="translate(92,68)"/>
<path d="M0 0 C0.66 0 1.32 0 2 0 C2 0.66 2 1.32 2 2 C2.99 2.33 3.98 2.66 5 3 C5.33 5.31 5.66 7.62 6 10 C3.25722422 6.80009492 1.3697164 3.99500618 0 0 Z " fill="#72BC93" transform="translate(63,100)"/>
<path d="M0 0 C1.9375 0.5 1.9375 0.5 4 2 C4.68790422 4.69658452 4.81946464 7.2017019 5 10 C2.35534962 6.8745041 1.15585285 3.91211733 0 0 Z " fill="#6CB98F" transform="translate(394,55)"/>
<path d="M0 0 C0.66 0 1.32 0 2 0 C1.34 3.3 0.68 6.6 0 10 C-0.33 10 -0.66 10 -1 10 C-1.125 2.25 -1.125 2.25 0 0 Z " fill="#D9743C" transform="translate(375,103)"/>
<path d="M0 0 C0.99 0.33 1.98 0.66 3 1 C2.67 1.99 2.34 2.98 2 4 C-0.0625 4.6875 -0.0625 4.6875 -2 5 C-1.34 3.35 -0.68 1.7 0 0 Z " fill="#DE8F61" transform="translate(174,70)"/>
<path d="M0 0 C3.625 -0.1875 3.625 -0.1875 7 0 C7 0.33 7 0.66 7 1 C5.88625 1.12375 5.88625 1.12375 4.75 1.25 C1.48778646 2.1396946 0.19045122 3.48503749 -2 6 C-2 3 -2 3 0 0 Z " fill="#DE9E77" transform="translate(211,8)"/>
<path d="M0 0 C0.33 0 0.66 0 1 0 C1.144375 0.763125 1.28875 1.52625 1.4375 2.3125 C1.9632594 5.08172908 1.9632594 5.08172908 3 8 C1.68 8 0.36 8 -1 8 C-0.67 5.36 -0.34 2.72 0 0 Z " fill="#D28F6A" transform="translate(514,110)"/>
<path d="M0 0 C0.99 0 1.98 0 3 0 C3 2.64 3 5.28 3 8 C2.01 7.34 1.02 6.68 0 6 C-0.1875 2.875 -0.1875 2.875 0 0 Z " fill="#D68251" transform="translate(509,102)"/>
<path d="M0 0 C2.97 0 5.94 0 9 0 C9 0.33 9 0.66 9 1 C7.576875 1.12375 7.576875 1.12375 6.125 1.25 C2.89538209 1.65074923 2.89538209 1.65074923 1.625 4.0625 C1.41875 4.701875 1.2125 5.34125 1 6 C0.67 4.02 0.34 2.04 0 0 Z " fill="#98D3B3" transform="translate(389,42)"/>
<path d="M0 0 C0.6875 1.6875 0.6875 1.6875 1 4 C-0.3125 6.75 -0.3125 6.75 -2 9 C-2.66 9 -3.32 9 -4 9 C-2.94124926 5.59687262 -1.99097846 2.98646769 0 0 Z " fill="#E6AF8D" transform="translate(162,15)"/>
<path d="M0 0 C0.99 0.495 0.99 0.495 2 1 C2 2.32 2 3.64 2 5 C2.99 5.33 3.98 5.66 5 6 C3.0625 6.5625 3.0625 6.5625 1 7 C0 6 0 6 -0.0625 2.9375 C-0.041875 1.968125 -0.02125 0.99875 0 0 Z " fill="#DA733B" transform="translate(363,110)"/>
<path d="M0 0 C0.75 1.75 0.75 1.75 1 4 C-0.9375 6.25 -0.9375 6.25 -3 8 C-3.33 7.34 -3.66 6.68 -4 6 C-2.68 4.02 -1.36 2.04 0 0 Z " fill="#7CC399" transform="translate(84,80)"/>
<path d="M0 0 C0.66 1.32 1.32 2.64 2 4 C1.01 4.33 0.02 4.66 -1 5 C-1.33 5.99 -1.66 6.98 -2 8 C-2 4.23312136 -1.76462683 3.08809695 0 0 Z " fill="#5BB081" transform="translate(420,45)"/>
</svg>
